<svg width="520" height="373" viewBox="0 0 520 373" fill="none" xmlns="http://www.w3.org/2000/svg">
<g opacity="0.4">
<g opacity="0.5">
<path d="M512.792 98.5325L87.8398 -12.7545L8.65448 254.114L433.606 365.401L512.792 98.5325Z" fill="#FCCF4E"/>
<path d="M474.503 123.291L105.527 26.5388L45.392 229.512L414.368 326.264L474.503 123.291Z" fill="#FCAC39"/>
<path d="M296.981 40.9454L87.5703 -13.5371L8.6094 250.845L218.02 305.327L296.981 40.9454Z" fill="#FBC338"/>
<path d="M288.274 73.1037L106.164 25.7631L45.9146 227.331L228.025 274.671L288.274 73.1037Z" fill="#FB9A25"/>
<path d="M240.98 242.391C276.331 251.706 313.497 229.015 324.318 192.3C335.138 155.586 315.514 118.75 280.164 109.436C244.813 100.121 207.122 121.855 196.301 158.57C185.481 195.284 205.629 233.077 240.98 242.391Z" fill="#FCCF4E"/>
<path fill-rule="evenodd" clip-rule="evenodd" d="M281.242 111.047L242.649 242.675C277.228 251.573 313.744 229.602 324.36 193.395C334.977 157.182 315.677 120.437 281.242 111.047Z" fill="#FCDA4E"/>
<path d="M284.608 199.002C282.81 205.052 279.449 210.032 274.163 212.606C268.875 215.185 262.312 215.263 254.542 214.01L250.938 226.135L243.513 224.194L246.892 212.827C238.042 210.309 230.51 206.144 224.71 201.311L229.215 186.154C231.903 188.618 235.641 191.388 239.743 193.807C243.837 196.23 247.513 198.039 250.947 199.186L256.353 180.998L253.091 178.512C246.746 173.657 241.957 170.369 239.977 166.1C238.003 161.833 238.05 156.433 239.577 151.295C241.217 145.777 244.376 141.683 249.571 139.207C254.767 136.731 261.559 136.624 269.192 137.803L271.896 128.709L279.32 130.65L276.842 138.986C285.086 141.549 291.723 145.231 297.54 150.114L288.288 162.396C283.317 158.474 278.387 155.481 272.563 153.384L267.382 170.814C273.646 175.527 277.816 178.64 280.204 181.517C282.591 184.393 284.204 187.201 284.858 190.084C285.516 192.955 285.604 195.652 284.608 199.002ZM255.911 155.565C255.413 157.24 255.254 159.126 256.045 160.5C256.835 161.874 258.937 163.292 261.083 165.084L265.138 151.443C260.212 150.934 256.872 152.333 255.911 155.565ZM268.048 195.49C268.524 193.891 267.861 192.55 266.947 191.118C266.032 189.692 265.005 187.803 262.876 185.971L258.596 200.369C263.815 200.802 266.973 199.107 268.048 195.49Z" fill="#FF6F00"/>
</g>
</g>
</svg>
