<svg xmlns="http://www.w3.org/2000/svg" width="40" height="40" viewBox="0 0 40 40"><g><g><g/><g><g><g><path d="M36.248 29.427c.853.844 1.3 1.848 1.3 2.895 0 1.039-.439 2.052-1.274 2.921-.363.38-.735.743-1.098 1.09-.532.514-1.038.996-1.477 1.527-.009.017-.026.026-.034.043-1.283 1.393-2.921 2.093-4.871 2.093-.17 0-.355-.008-.532-.017-2.896-.185-5.488-1.274-7.43-2.195-5.082-2.456-9.53-5.943-13.228-10.358-3.048-3.664-5.091-7.083-6.459-10.773-.557-1.502-1.283-3.799-1.08-6.264a6.176 6.176 0 0 1 1.832-3.925l2.87-2.896.017-.017c.844-.81 1.84-1.241 2.87-1.241s2.01.43 2.828 1.241c.55.507 1.081 1.047 1.588 1.57.253.27.523.54.785.802l2.304 2.305c1.773 1.773 1.773 4.07 0 5.842-.236.236-.472.481-.709.718-.624.633-1.266 1.291-1.958 1.924.515 1.14 1.224 2.263 2.28 3.597 2.177 2.676 4.448 4.744 6.947 6.332.245.152.532.295.836.447.211.11.43.22.65.338l2.668-2.66c.852-.852 1.849-1.3 2.887-1.3 1.047 0 2.035.456 2.853 1.309zm-1.612 4.238c.861-.895.861-1.782-.009-2.643l-4.651-4.651-.017-.017c-.262-.287-.692-.617-1.216-.617-.532 0-.988.346-1.275.634l-2.887 2.887c-.143.143-.582.582-1.283.582a1.83 1.83 0 0 1-.836-.21c-.034-.018-.067-.043-.101-.06-.245-.152-.532-.295-.836-.447-.338-.17-.692-.346-1.038-.566-2.71-1.714-5.167-3.951-7.497-6.821l-.009-.009c-1.283-1.63-2.127-2.997-2.726-4.449l-.026-.076c-.152-.481-.287-1.19.44-1.916.008-.017.025-.026.041-.042a44.05 44.05 0 0 0 2.12-2.06c.244-.237.48-.482.726-.726.894-.895.894-1.723 0-2.617L11.25 7.536c-.27-.279-.54-.549-.802-.82A42.594 42.594 0 0 0 8.904 5.18c-.27-.27-.7-.59-1.233-.59-.43 0-.87.21-1.283.599L3.509 8.068c-.7.7-1.08 1.52-1.165 2.507-.126 1.545.16 3.183.946 5.285 1.274 3.444 3.2 6.652 6.078 10.122 3.487 4.162 7.683 7.446 12.46 9.76 1.749.835 4.079 1.815 6.586 1.975.127.008.262.008.388.008 1.317 0 2.322-.43 3.175-1.342a22.197 22.197 0 0 1 1.629-1.688c.363-.355.7-.676 1.03-1.03-.009.008-.009 0 0 0z"/></g><g><path d="M21.618 9.51a10.705 10.705 0 0 1 5.825 3.023 10.761 10.761 0 0 1 3.023 5.825c.092.558.574.946 1.122.946.068 0 .127-.008.195-.017a1.14 1.14 0 0 0 .937-1.317 13.021 13.021 0 0 0-3.656-7.05 13.021 13.021 0 0 0-7.05-3.655 1.146 1.146 0 0 0-1.316.929c-.11.616.295 1.216.92 1.317z"/></g><g><path d="M39.951 17.645c-.751-4.407-2.828-8.417-6.02-11.608-3.19-3.191-7.2-5.268-11.607-6.02a1.135 1.135 0 0 0-1.309.929 1.145 1.145 0 0 0 .937 1.317c3.934.667 7.522 2.533 10.376 5.378 2.853 2.853 4.71 6.441 5.378 10.375.093.558.574.946 1.122.946.068 0 .127-.009.195-.017a1.119 1.119 0 0 0 .928-1.3z"/></g></g></g></g></g></svg>