<svg xmlns="http://www.w3.org/2000/svg" width="40" height="40" viewBox="0 0 40 40"><g><g><g/><g><g><g><path fill="#fff" d="M40 29.17v3.586l-2.054 3.08H2.054L0 32.757V29.17h1.667v-25h36.666v25zm-36.667 0h33.334V5.837H3.333zm35 1.667H1.667v1.414l1.279 1.919h34.108l1.28-1.919z"/></g></g></g><g><g><g><path fill="#fff" d="M20.837 31.67H19.17v1.667h1.667z"/></g></g></g><g><g><g><path fill="#fff" d="M17.497 31.67H15.83v1.667h1.667z"/></g></g></g><g><g><g><path fill="#fff" d="M24.167 31.67H22.5v1.667h1.667z"/></g></g></g><g><g><g><path fill="#fff" d="M8.33 15.003V9.17H6.663v.833H5.83v1.667h.833v3.333H5.83v1.667h3.333v-1.667z"/></g></g></g><g><g><g><path fill="#fff" d="M20.83 15.003V9.17h-1.667v.833h-.833v1.667h.833v3.333h-.833v1.667h3.333v-1.667z"/></g></g></g><g><g><g><path fill="#fff" d="M26.67 15.003V9.17h-1.667v.833h-.833v1.667h.833v3.333h-.833v1.667h3.333v-1.667z"/></g></g></g><g><g><g><path fill="#fff" d="M15.83 11.67v2.5c0 1.379-1.121 2.5-2.5 2.5a2.503 2.503 0 0 1-2.5-2.5v-2.5c0-1.379 1.121-2.5 2.5-2.5s2.5 1.121 2.5 2.5zm-1.667 0a.834.834 0 0 0-1.666 0v2.5a.834.834 0 0 0 1.666 0z"/></g></g></g><g><g><g><path fill="#fff" d="M34.17 11.67v2.5c0 1.379-1.121 2.5-2.5 2.5a2.503 2.503 0 0 1-2.5-2.5v-2.5c0-1.379 1.121-2.5 2.5-2.5s2.5 1.121 2.5 2.5zm-1.667 0a.834.834 0 0 0-1.666 0v2.5a.834.834 0 0 0 1.666 0z"/></g></g></g><g><g><g><path fill="#fff" d="M8.337 19.17H6.67v5.833h1.667z"/></g></g></g><g><g><g><path fill="#fff" d="M8.337 25.83H6.67v1.667h1.667z"/></g></g></g><g><g><g><path fill="#fff" d="M16.667 21.67H15v5.833h1.667z"/></g></g></g><g><g><g><path fill="#fff" d="M16.667 19.17H15v1.667h1.667z"/></g></g></g><g><g><g><path fill="#fff" d="M29.167 19.17H27.5v5.833h1.667z"/></g></g></g><g><g><g><path fill="#fff" d="M29.167 25.83H27.5v1.667h1.667z"/></g></g></g><g><g><g><path fill="#fff" d="M33.337 21.67H31.67v5.833h1.667z"/></g></g></g><g><g><g><path fill="#fff" d="M33.337 19.17H31.67v1.667h1.667z"/></g></g></g><g><g><g><path fill="#fff" d="M12.497 25.83H10.83v1.667h1.667z"/></g></g></g><g><g><g><path fill="#fff" d="M12.497 19.17H10.83v3.333h1.667z"/></g></g></g><g><g><g><path fill="#fff" d="M12.497 23.33H10.83v1.667h1.667z"/></g></g></g><g><g><g><path fill="#fff" d="M24.997 25.83H23.33v1.667h1.667z"/></g></g></g><g><g><g><path fill="#fff" d="M24.997 19.17H23.33v3.333h1.667z"/></g></g></g><g><g><g><path fill="#fff" d="M24.997 23.33H23.33v1.667h1.667z"/></g></g></g><g><g><g><path fill="#fff" d="M20.837 19.17H19.17v1.667h1.667z"/></g></g></g><g><g><g><path fill="#fff" d="M20.837 24.17H19.17v3.333h1.667z"/></g></g></g><g><g><g><path fill="#fff" d="M20.837 21.67H19.17v1.667h1.667z"/></g></g></g></g></g></svg>