<svg xmlns="http://www.w3.org/2000/svg" width="40" height="40" viewBox="0 0 40 40"><g><g><g/><g><g><g><g><path fill="#fff" d="M39.285 5c.395 0 .715.32.715.714v28.572c0 .394-.32.714-.714.714H.714A.714.714 0 0 1 0 34.286V5.713C0 5.32.32 5 .714 5zM5 11.428H1.429v22.143H5zm17.857 0H6.43v22.143h16.428zm5 0h-3.571v22.143h3.571zm10.714 0h-9.285v22.143h9.285zm0-5H1.43V10H38.57z"/></g><g><path fill="#fff" d="M8.574 21.431a.714.714 0 0 1-.714-.714v-7.143c0-.394.32-.714.714-.714h12.143c.395 0 .715.32.715.714v7.143c0 .395-.32.714-.715.714H8.574zm.715-1.428h10.714v-5.715H9.289z"/></g><g><path fill="#fff" d="M8.574 32.862a.714.714 0 0 1-.714-.715v-7.143c0-.394.32-.714.714-.714h12.143c.395 0 .715.32.715.714v7.143c0 .395-.32.715-.715.715H8.574zm.715-1.43h10.714V25.72H9.289z"/></g><g><path fill="#fff" d="M20.713 22.14H8.57v1.429h12.143z"/></g></g></g></g></g></g></svg>