<svg xmlns="http://www.w3.org/2000/svg" width="40" height="40" viewBox="0 0 40 40"><g><g><g/><g><g><g><g><path fill="#fff" d="M9.825 20.7C4.407 20.7 0 16.291 0 10.874 0 5.457 4.407 1.05 9.825 1.05c5.417 0 9.824 4.407 9.824 9.825 0 5.417-4.407 9.824-9.824 9.824zm8.42-9.825h-2.361c.001.09.008.177.008.268 0 2.837-.752 5.34-1.96 7.076 2.57-1.444 4.314-4.193 4.314-7.344zM18.12 9.47a8.437 8.437 0 0 0-4.908-6.3c1.35 1.407 2.3 3.652 2.586 6.3zm-7.593 0h3.858c-.406-3.254-1.964-5.848-3.858-6.374zm0 9.717c2.21-.613 3.963-4.043 3.963-8.045 0-.09-.006-.179-.008-.268h-3.955zM1.53 9.471h2.321c.286-2.648 1.236-4.893 2.587-6.3a8.438 8.438 0 0 0-4.908 6.3zm-.126 1.404c0 3.151 1.742 5.9 4.312 7.343-1.208-1.735-1.96-4.238-1.96-7.075 0-.09.007-.178.009-.268zm7.719 0H5.168c-.002.09-.008.178-.008.268 0 4.002 1.754 7.432 3.963 8.046zm0-7.778c-1.894.526-3.452 3.12-3.859 6.374h3.859z"/></g><g><path fill="#fff" d="M39.95 37.981a.702.702 0 0 1-.653.962H21.052a.703.703 0 0 1-.652-.962l1.354-3.384v-8.285c0-.388.313-.702.701-.702h15.439c.388 0 .702.314.702.702v8.285l1.353 3.384zm-16.793-3.95h14.035v-7.017H23.157zm15.104 3.509l-.842-2.105H22.93l-.842 2.105z"/></g><g><path fill="#fff" d="M18.042 30.152a.702.702 0 1 0-.992.992l.786.787h-7.308v-5.905l.787.787a.7.7 0 0 0 .992 0 .702.702 0 0 0 0-.992l-1.822-1.822a.693.693 0 0 0-.659-.489.693.693 0 0 0-.658.489L7.346 25.82a.702.702 0 1 0 .992.992l.787-.787v6.607c0 .388.314.702.701.702h8.01l-.786.786a.702.702 0 1 0 .992.992l1.984-1.984a.702.702 0 0 0 0-.992z"/></g></g></g></g></g></g></svg>