<svg xmlns="http://www.w3.org/2000/svg" width="40" height="40" viewBox="0 0 40 40"><g><g><g/><g><g><g><g><path fill="#fff" d="M4.969 30.323L.13 27.097l4.839-3.226h.195V0h22.848l6.83 6.83V23.87h1.935a3.23 3.23 0 0 1 3.226 3.226 3.23 3.23 0 0 1-3.226 3.226zm31.163-1.29h.645a1.938 1.938 0 0 0 1.936-1.936 1.938 1.938 0 0 0-1.936-1.936h-.645zm-1.29-3.872h-1.29v3.871h1.29zM28.39 6.451h4.249L28.39 2.204zM6.455 23.872h9.677v-3.18l-.664-4.65 2.174-5.073h4.721l2.175 5.073-.664 4.65v3.18h9.677V7.741H27.1v-6.45H6.455zM22.669 20l.541-3.783-1.697-3.959h-.865v2.7c.75.266 1.29.976 1.29 1.816a1.938 1.938 0 0 1-1.935 1.936 1.938 1.938 0 0 1-1.936-1.936c0-.84.542-1.55 1.29-1.817v-2.699h-.864l-1.697 3.959.54 3.783zm-5.247 1.29v2.581h5.161v-2.58zm1.936-4.516a.645.645 0 1 0 1.29 0 .645.645 0 0 0-1.29 0zM6.455 26.452H32.26v-1.29H6.455zm0 2.58H32.26v-1.29H6.455zm-3.999-1.935l2.708 1.805v-3.61z"/></g><g><path fill="#fff" d="M0 31.61h40v8.387H0zm1.29 7.097h2.581V35.48h1.29v3.226h2.58V36.77h1.291v1.936h2.58V35.48h1.291v3.226h2.58V36.77h1.291v1.936h2.58V35.48h1.291v3.226h2.58V36.77h1.291v1.936h2.58V35.48h1.291v3.226h2.58V36.77h1.291v1.936h2.58V35.48h1.291v3.226h2.58V32.9H1.29z"/></g><g><path fill="#fff" d="M12.287 16.254a1.933 1.933 0 0 1 1.264 1.809 1.938 1.938 0 0 1-1.936 1.935 1.938 1.938 0 0 1-1.935-1.935c0-.85.554-1.566 1.317-1.826.28-4.73 4.206-8.497 9.006-8.497s8.725 3.766 9.005 8.497c.763.26 1.317.976 1.317 1.826a1.938 1.938 0 0 1-1.935 1.935 1.938 1.938 0 0 1-1.936-1.935c0-.83.529-1.535 1.264-1.809-.268-4.028-3.621-7.224-7.715-7.224-4.095 0-7.448 3.197-7.716 7.224zm15.457 1.809a.645.645 0 1 0 1.291 0 .645.645 0 0 0-1.29 0zm-15.483 0a.645.645 0 1 0-1.291 0 .645.645 0 0 0 1.29 0z"/></g></g></g></g></g></g></svg>