<svg xmlns="http://www.w3.org/2000/svg" width="40" height="40" viewBox="0 0 40 40"><g><g><g/><g><g><g><path fill="#fff" d="M33.333 15.837v-5.834H1.667V34.17c0 1.378 1.121 2.5 2.5 2.5h26.666c1.378 0 2.5-1.122 2.5-2.5v-5a.834.834 0 0 1 1.667 0v5a4.171 4.171 0 0 1-4.167 4.167H4.167A4.171 4.171 0 0 1 0 34.17V5.837A4.171 4.171 0 0 1 4.167 1.67h26.666A4.171 4.171 0 0 1 35 5.837v10a.834.834 0 0 1-1.667 0zm0-7.5v-2.5c0-1.379-1.121-2.5-2.5-2.5H4.167a2.503 2.503 0 0 0-2.5 2.5v2.5z"/></g></g></g><g><g><g><path fill="#fff" d="M4.163 6.667a.833.833 0 1 0 0-1.667.833.833 0 0 0 0 1.667z"/></g></g></g><g><g><g><path fill="#fff" d="M7.503 6.667a.833.833 0 1 0 0-1.667.833.833 0 0 0 0 1.667z"/></g></g></g><g><g><g><path fill="#fff" d="M10.833 6.667a.833.833 0 1 0 0-1.667.833.833 0 0 0 0 1.667z"/></g></g></g><g><g><g><path fill="#fff" d="M9.163 18.33a.834.834 0 0 0-.833.833v2.5H4.997v-2.5a.834.834 0 0 0-1.667 0v6.667a.834.834 0 0 0 1.667 0v-2.5H8.33v2.5a.834.834 0 0 0 1.667 0v-6.667a.834.834 0 0 0-.834-.833z"/></g></g></g><g><g><g><path fill="#fff" d="M15.837 18.33h-3.334a.834.834 0 0 0 0 1.667h.834v5.833a.834.834 0 0 0 1.666 0v-5.833h.834a.834.834 0 0 0 0-1.667z"/></g></g></g><g><g><g><path fill="#fff" d="M22.497 18.33h-3.334a.834.834 0 0 0 0 1.667h.834v5.833a.834.834 0 0 0 1.666 0v-5.833h.834a.834.834 0 0 0 0-1.667z"/></g></g></g><g><g><g><path fill="#fff" d="M27.5 18.33c1.378 0 2.5 1.122 2.5 2.5s-1.122 2.5-2.5 2.5h-.833v2.5a.834.834 0 0 1-1.667 0v-6.667c0-.46.373-.833.833-.833zm0 3.333a.835.835 0 0 0 .833-.833.835.835 0 0 0-.833-.833h-.833v1.666z"/></g></g></g><g><g><g><path fill="#fff" d="M39.372 18.357a.824.824 0 0 0-1.01.606l-1.667 6.667a.831.831 0 0 0 .808 1.035.83.83 0 0 0 .809-.632l1.666-6.666a.831.831 0 0 0-.606-1.01z"/></g></g></g><g><g><g><path fill="#fff" d="M36.032 18.357a.823.823 0 0 0-1.01.606l-1.667 6.667a.831.831 0 0 0 .808 1.035.83.83 0 0 0 .809-.632l1.666-6.666a.831.831 0 0 0-.606-1.01z"/></g></g></g><g><g><g><path fill="#fff" d="M32.503 21.667a.833.833 0 1 0 0-1.667.833.833 0 0 0 0 1.667z"/></g></g></g><g><g><g><path fill="#fff" d="M32.503 24.997a.833.833 0 1 0 0-1.667.833.833 0 0 0 0 1.667z"/></g></g></g></g></g></svg>