<svg xmlns="http://www.w3.org/2000/svg" width="40" height="40" viewBox="0 0 40 40"><g><g><g/><g><g><g><path fill="#fff" d="M37.333 10.667v4h2c.4 0 .667.266.667.666v9.334c0 .4-.267.666-.667.666h-2v4h2c.4 0 .667.267.667.667v9.333c0 .4-.267.667-.667.667H.667c-.4 0-.667-.267-.667-.667V30c0-.4.267-.667.667-.667h2v-4h-2c-.4 0-.667-.266-.667-.666v-9.334c0-.4.267-.666.667-.666h2v-4h-2C.267 10.667 0 10.4 0 10V.667C0 .267.267 0 .667 0h38.666c.4 0 .667.267.667.667V10c0 .4-.267.667-.667.667zm-36-1.334h37.334v-8H1.333zm37.334 21.334H1.333v8h37.334zM36 25.333H4v4h32zM38.667 16H1.333v8h37.334zM36 10.667H4v4h32z"/></g><g><path fill="#fff" d="M4.663 3.33H3.33v4h1.333z"/></g><g><path fill="#fff" d="M8.003 3.33H6.67v4h1.333z"/></g><g><path fill="#fff" d="M11.333 3.33H10v4h1.333z"/></g><g><path fill="#fff" d="M14.663 3.33H13.33v4h1.333z"/></g><g><path fill="#fff" d="M18.003 3.33H16.67v4h1.333z"/></g><g><path fill="#fff" d="M21.333 3.33H20v4h1.333z"/></g><g><path fill="#fff" d="M36.67 3.33h-12v1.333h12z"/></g><g><path fill="#fff" d="M36.663 6H29.33v1.333h7.333z"/></g><g><path fill="#fff" d="M28.003 6H24.67v1.333h3.333z"/></g><g><path fill="#fff" d="M36.663 18H27.33v1.333h9.333z"/></g><g><path fill="#fff" d="M13.33 18h-10v1.333h10z"/></g><g><path fill="#fff" d="M36.663 20.67H27.33v1.333h9.333z"/></g><g><path fill="#fff" d="M13.33 20.67h-10v1.333h10z"/></g><g><path fill="#fff" d="M17.997 32.67H3.33v1.333h14.667z"/></g><g><path fill="#fff" d="M17.997 35.33H3.33v1.333h14.667z"/></g><g><path fill="#fff" d="M17.33 18h-2v1.333h2z"/></g><g><path fill="#fff" d="M21.33 18h-2v1.333h2z"/></g><g><path fill="#fff" d="M25.33 18h-2v1.333h2z"/></g><g><path fill="#fff" d="M17.33 20.67h-2v1.333h2z"/></g><g><path fill="#fff" d="M21.33 20.67h-2v1.333h2z"/></g><g><path fill="#fff" d="M25.33 20.67h-2v1.333h2z"/></g><g><path fill="#fff" d="M22 32.67h-2v1.333h2z"/></g><g><path fill="#fff" d="M26 32.67h-2v1.333h2z"/></g><g><path fill="#fff" d="M30 32.67h-2v1.333h2z"/></g><g><path fill="#fff" d="M22 35.33h-2v1.333h2z"/></g><g><path fill="#fff" d="M26 35.33h-2v1.333h2z"/></g><g><path fill="#fff" d="M30 35.33h-2v1.333h2z"/></g><g><path fill="#fff" d="M33.333 32.67H32v4h1.333z"/></g><g><path fill="#fff" d="M36.663 32.67H35.33v4h1.333z"/></g></g></g></g></g></svg>