<svg xmlns="http://www.w3.org/2000/svg" width="20" height="20" viewBox="0 0 20 20"><g><g><g/><g><g><path d="M10.003 18.838a2.258 2.258 0 0 1-1.741-.833l-.734-.833a1.033 1.033 0 0 0-.858-.359l-1.125.1a2.29 2.29 0 0 1-1.808-.658 2.317 2.317 0 0 1-.667-1.808l.092-1.159a1.058 1.058 0 0 0-.367-.833l-.833-.725a2.283 2.283 0 0 1 0-3.492l.833-.733a1.033 1.033 0 0 0 .35-.883l-.1-1.125a2.325 2.325 0 0 1 .658-1.809 2.283 2.283 0 0 1 1.809-.666l1.158.091a1.025 1.025 0 0 0 .833-.366l.725-.834A2.283 2.283 0 0 1 9.97 1.08a2.258 2.258 0 0 1 1.742.833l.733.834a1.051 1.051 0 0 0 .892.35l1.125-.1a2.292 2.292 0 0 1 2.5 2.5l-.117 1.125a1.06 1.06 0 0 0 .367.833l.833.725a2.283 2.283 0 0 1 0 3.492l-.833.733a1.033 1.033 0 0 0-.35.883l.1 1.125a2.324 2.324 0 0 1-.659 1.809 2.283 2.283 0 0 1-1.808.666l-1.158-.091a1.058 1.058 0 0 0-.834.366l-.725.834a2.283 2.283 0 0 1-1.741.833zm-3.25-3.275a2.293 2.293 0 0 1 1.742.834l.733.833a1.034 1.034 0 0 0 .792.367 1 1 0 0 0 .833-.375l.725-.834a2.283 2.283 0 0 1 1.934-.833l1.125.083a1.007 1.007 0 0 0 .833-.3 1.04 1.04 0 0 0 .3-.833l-.092-1.117a2.275 2.275 0 0 1 .834-1.933l.833-.733a1.032 1.032 0 0 0 .367-.792 1 1 0 0 0-.375-.833l-.834-.725a2.292 2.292 0 0 1-.833-1.934l.083-1.125a1.033 1.033 0 0 0-1.125-1.116l-1.116.091a2.267 2.267 0 0 1-1.934-.833l-.733-.833a1.033 1.033 0 0 0-.842-.3 1 1 0 0 0-.833.375l-.725.833a2.317 2.317 0 0 1-1.933.833L5.387 4.28a1.008 1.008 0 0 0-.834.3 1.042 1.042 0 0 0-.3.833l.092 1.117a2.275 2.275 0 0 1-.833 1.933l-.834.734a1.033 1.033 0 0 0-.366.791 1 1 0 0 0 .375.834l.833.725a2.291 2.291 0 0 1 .833 1.933l-.083 1.125a1.034 1.034 0 0 0 1.125 1.117l1.117-.092z"/></g><g><path d="M10.005 13.08a3.125 3.125 0 1 1 0-6.25 3.125 3.125 0 0 1 0 6.25zm0-5a1.875 1.875 0 1 0 0 3.75 1.875 1.875 0 0 0 0-3.75z"/></g></g></g></g></svg>