<svg xmlns="http://www.w3.org/2000/svg" width="20" height="20" viewBox="0 0 20 20"><g><g><g/></g><g><g/><g><g><g><path d="M10.659 19.343c-1.1-.07-2.083-.481-2.812-.828a14.992 14.992 0 0 1-4.989-3.904C1.713 13.229.938 11.937.425 10.548.213 9.973-.065 9.1.013 8.163c.05-.587.29-1.096.705-1.516l1.084-1.084c.339-.326.73-.493 1.133-.493.408 0 .795.171 1.117.493.196.184.4.387.591.587l.294.298.864.864c.342.342.521.737.521 1.145 0 .407-.179.803-.521 1.145l-.27.269c-.224.228-.456.46-.7.689.183.395.444.807.827 1.288.807.994 1.655 1.769 2.588 2.36.09.057.196.11.306.167.065.032.134.065.2.101l.961-.961c.33-.335.726-.51 1.133-.51.412 0 .803.175 1.125.514l1.74 1.74c.673.672.677 1.59.008 2.286a9.861 9.861 0 0 1-.411.412c-.2.192-.387.37-.55.566l-.017.017c-.493.538-1.125.81-1.879.81-.065 0-.134-.003-.203-.007zM3.62 13.967a14.027 14.027 0 0 0 4.65 3.648c.648.31 1.517.672 2.446.733.049.004.094.004.142.004.473 0 .832-.15 1.138-.476.195-.233.411-.437.615-.636.134-.13.265-.253.383-.38.302-.313.302-.602.012-.892l-1.748-1.748c-.098-.102-.24-.216-.412-.216-.175 0-.33.118-.428.216l-1.084 1.084c-.253.257-.562.31-.876.155l-.045-.025c-.09-.057-.196-.11-.306-.167-.13-.065-.264-.13-.395-.216-1.023-.648-1.948-1.492-2.828-2.576-.494-.62-.811-1.14-1.04-1.691l-.012-.033c-.065-.195-.118-.493.18-.79l.02-.02c.273-.245.526-.502.79-.77.09-.095.18-.184.274-.278.101-.106.228-.265.228-.44 0-.176-.122-.334-.228-.44l-.864-.864c-.102-.102-.204-.204-.302-.306-.196-.2-.38-.387-.57-.567-.103-.102-.25-.212-.425-.212-.183 0-.338.115-.436.208L1.432 7.34c-.261.26-.4.554-.428.905-.05.57.06 1.174.35 1.952.477 1.284 1.194 2.482 2.266 3.77z"/></g><g><path d="M12.041 11.49a7.014 7.014 0 0 0 1.68.205c3.464 0 6.28-2.499 6.28-5.568 0-3.069-2.816-5.567-6.28-5.567-3.465 0-6.281 2.494-6.281 5.567 0 1.178.424 2.327 1.198 3.273-.147.281-.35.51-.603.672a.657.657 0 0 0 .269 1.203c.534.073 1.57.114 2.535-.469a.498.498 0 1 0-.513-.856 2.64 2.64 0 0 1-1.08.35 2.97 2.97 0 0 0 .448-.814.505.505 0 0 0-.102-.514c-.754-.82-1.153-1.801-1.153-2.849 0-2.519 2.367-4.569 5.281-4.569 2.915 0 5.282 2.05 5.282 4.57 0 2.518-2.367 4.568-5.282 4.568a6.1 6.1 0 0 1-1.442-.171.5.5 0 0 0-.237.97z"/></g><g><path d="M13.72 6.66a.53.53 0 1 0 0-1.06.53.53 0 0 0 0 1.06z"/></g><g><path d="M15.61 6.66a.53.53 0 1 0 0-1.06.53.53 0 0 0 0 1.06z"/></g><g><path d="M11.83 6.66a.53.53 0 1 0 0-1.06.53.53 0 0 0 0 1.06z"/></g></g></g></g></g></svg>