<svg xmlns="http://www.w3.org/2000/svg" width="20" height="20" viewBox="0 0 20 20"><g><g><g/></g><g><g/><g><path d="M19.88 16.067a.624.624 0 1 1-1.008.736l-2.906-3.975c-.523-.715-1.346-1.15-2.2-1.163h-.09l-5.858.085a.319.319 0 0 0-.315.34c.01.166.147.298.313.302l3.667.081c.415.01.81.192 1.086.502s.412.724.374 1.137a1.507 1.507 0 0 1-1.493 1.36h-.024l-4.213-.066a2.287 2.287 0 0 1-1.411-.518L2.07 11.819a.504.504 0 0 0-.662.758l4.743 4.391c.366.34.843.535 1.343.552l7.043.235a.624.624 0 1 1-.041 1.247l-7.044-.235a3.327 3.327 0 0 1-2.149-.883L.562 13.493a1.739 1.739 0 0 1-.56-1.222 1.74 1.74 0 0 1 .47-1.258 1.754 1.754 0 0 1 2.392-.158l3.73 3.07c.18.147.406.23.639.234l4.213.065h.004a.253.253 0 0 0 .188-.42.25.25 0 0 0-.183-.083l-3.667-.082A1.58 1.58 0 0 1 6.3 12.443a6.15 6.15 0 0 1-2.227-2.065 6.118 6.118 0 0 1-.98-3.329A6.146 6.146 0 0 1 9.233.91a6.146 6.146 0 0 1 6.14 6.14 6.08 6.08 0 0 1-1.036 3.416 4.088 4.088 0 0 1 2.636 1.626l2.907 3.975zM8.817 10.488v-.239A1.835 1.835 0 0 1 7.4 8.466a.416.416 0 0 1 .832 0c0 .403.24.75.584.909V7.417A1.835 1.835 0 0 1 7.4 5.633c0-.867.605-1.594 1.416-1.783V3.56a.416.416 0 0 1 .832 0v.289c.81.189 1.416.916 1.416 1.783a.416.416 0 0 1-.832 0c0-.403-.24-.75-.584-.909v1.958c.81.189 1.416.916 1.416 1.784 0 .867-.606 1.594-1.416 1.783v.227l3.119-.045a4.842 4.842 0 0 0 1.356-3.381 4.897 4.897 0 0 0-4.891-4.892A4.897 4.897 0 0 0 4.34 7.05c0 .945.27 1.862.78 2.651.375.58.865 1.07 1.436 1.444a1.557 1.557 0 0 1 1.243-.642zm0-5.764a1.001 1.001 0 0 0 0 1.818zm.832 4.65a1.001 1.001 0 0 0 0-1.818z"/></g></g></g></svg>