<svg xmlns="http://www.w3.org/2000/svg" width="20" height="20" viewBox="0 0 20 20"><g><g><g/><g><g><g><path d="M16.676 11.432a4.608 4.608 0 0 1 2.191 3.921 4.612 4.612 0 0 1-4.435 4.603v.004H1.14v-20h11.39l4.146 4.17zM12.887 3.77h1.704l-1.704-1.714zm-1.754 14.965a4.613 4.613 0 0 1-1.48-3.382 4.61 4.61 0 0 1 1.57-3.464l.031-.027a4.598 4.598 0 0 1 4.198-.96V4.994h-3.79v-3.81H2.365v17.552zm4.147-1.455h-1.974v1.319a3.388 3.388 0 0 0 1.974-.021zm-.085-1.225l-.568-.816h-.668l-.567.816zm1.31 1.826a3.374 3.374 0 0 0 1.138-2.528 3.386 3.386 0 0 0-4.658-3.133c-.34.138-.653.33-.932.57l-.022.02a3.385 3.385 0 0 0-.14 4.956c.06.06.125.118.19.173v-2.144l2.212-3.181 2.212 3.18z"/></g></g></g><g><g><g><path d="M9.418 10.21H4.03v1.224h5.388z"/></g></g></g><g><g><g><path d="M9.378 5.25H3.99v1.224h5.388z"/></g></g></g><g><g><g><path d="M13.786 7.74H3.99v1.224h9.796z"/></g></g></g></g></g></svg>