<svg xmlns="http://www.w3.org/2000/svg" width="20" height="20" viewBox="0 0 20 20"><g><g><g/></g><g><g><path d="M6.03 3.934A3.979 3.979 0 0 1 10.004-.04a3.979 3.979 0 0 1 3.975 3.974 3.979 3.979 0 0 1-3.975 3.975A3.979 3.979 0 0 1 6.03 3.934zm1.17 0a2.808 2.808 0 0 0 2.804 2.805 2.808 2.808 0 0 0 2.805-2.805 2.808 2.808 0 0 0-2.805-2.804A2.808 2.808 0 0 0 7.2 3.934z"/></g><g><path d="M9.104 5.314a.583.583 0 0 0 .827 0l1.946-1.945a.585.585 0 0 0-.828-.828L9.518 4.073l-.56-.56a.585.585 0 0 0-.827.828z"/></g><g><path d="M0 3.44a2.383 2.383 0 0 1 2.38-2.38 2.383 2.383 0 0 1 2.38 2.38 2.383 2.383 0 0 1-2.38 2.38A2.383 2.383 0 0 1 0 3.44zm1.17 0c0 .668.543 1.21 1.21 1.21.668 0 1.21-.542 1.21-1.21 0-.667-.543-1.21-1.21-1.21-.667 0-1.21.543-1.21 1.21z"/></g><g><path d="M6.427 12.366c.973 0 1.764.79 1.764 1.763v5.038a.585.585 0 0 1-.585.585H5.334a.585.585 0 0 1-.585-.585v-3.39H2.29a2.072 2.072 0 0 1-2.069-2.07V8.897c0-1.189.967-2.156 2.156-2.156 1.188 0 2.156.967 2.156 2.156v3.47zm.594 1.763a.594.594 0 0 0-.594-.593h-2.48a.585.585 0 0 1-.585-.585V8.896a.987.987 0 0 0-1.972 0v4.812a.9.9 0 0 0 .9.9h3.044c.324 0 .585.261.585.585v3.389h1.102z"/></g><g><path d="M15.24 3.44a2.383 2.383 0 0 1 2.38-2.38A2.383 2.383 0 0 1 20 3.44a2.383 2.383 0 0 1-2.38 2.38 2.383 2.383 0 0 1-2.38-2.38zm1.17 0c0 .668.543 1.21 1.21 1.21.668 0 1.21-.542 1.21-1.21 0-.667-.543-1.21-1.21-1.21-.667 0-1.21.543-1.21 1.21z"/></g><g><path d="M19.78 8.896v4.812c0 1.141-.928 2.07-2.07 2.07h-2.459v3.389a.585.585 0 0 1-.585.585h-2.271a.585.585 0 0 1-.585-.585v-5.038c0-.972.79-1.763 1.763-1.763h1.896v-3.47c0-1.189.967-2.156 2.156-2.156 1.188 0 2.156.967 2.156 2.156zm-1.17 4.812V8.896a.987.987 0 0 0-1.971 0v4.055a.585.585 0 0 1-.585.585h-2.48a.594.594 0 0 0-.594.593v4.453h1.101v-3.39c0-.322.262-.584.585-.584h3.045a.9.9 0 0 0 .9-.9z"/></g><g><path d="M13.408 10.18a.585.585 0 1 0 0-1.17H6.595a.585.585 0 1 0 0 1.17h2.822v9.05a.585.585 0 1 0 1.17 0v-9.05z"/></g></g></g></svg>