<svg width="461" height="426" viewBox="0 0 461 426" fill="none" xmlns="http://www.w3.org/2000/svg">
<path d="M172.087 426C267.129 426 344.175 419.723 344.175 411.979C344.175 404.236 267.129 397.958 172.087 397.958C77.0461 397.958 0 404.236 0 411.979C0 419.723 77.0461 426 172.087 426Z" fill="#E6E7E8"/>
<path d="M459.195 280.354H336.83V379.849H459.195V280.354Z" fill="white"/>
<path d="M459.194 380.833H336.83C336.573 380.833 336.327 380.731 336.146 380.55C335.965 380.37 335.863 380.124 335.863 379.869V280.354C335.863 280.099 335.965 279.853 336.146 279.673C336.327 279.492 336.573 279.39 336.83 279.39H459.194C459.449 279.395 459.692 279.498 459.872 279.678C460.052 279.858 460.155 280.1 460.16 280.354V379.869C460.155 380.123 460.052 380.365 459.872 380.545C459.692 380.725 459.449 380.828 459.194 380.833ZM337.796 378.904H458.228V281.319H337.815L337.796 378.904Z" fill="#D1D3D4"/>
<path d="M459.194 294.105H336.83C336.573 294.105 336.327 294.004 336.146 293.823C335.965 293.642 335.863 293.397 335.863 293.141C335.863 292.885 335.965 292.64 336.146 292.459C336.327 292.278 336.573 292.177 336.83 292.177H459.194C459.45 292.177 459.696 292.278 459.877 292.459C460.058 292.64 460.16 292.885 460.16 293.141C460.155 293.395 460.052 293.638 459.872 293.817C459.692 293.997 459.449 294.1 459.194 294.105Z" fill="#D1D3D4"/>
<path d="M122.037 94.4598C119.397 94.6368 116.764 94.0379 114.463 92.737C112.161 91.4362 110.292 89.4905 109.087 87.1407C107.882 84.7909 107.394 82.14 107.683 79.5161C107.971 76.8922 109.025 74.4104 110.712 72.3777C103.33 68.9834 99.4265 60.2663 99.9676 52.1856C100.509 44.1049 104.779 36.757 110.113 30.547C114.5 25.4749 120.007 20.9042 126.597 19.6506C127.844 19.5266 129.061 19.1873 130.192 18.6477C131.081 18.023 131.853 17.246 132.472 16.3527C137.284 10.2199 143.216 4.58848 150.637 2.11991C158.058 -0.348658 167.141 1.05919 172.107 7.09561C174.59 4.94476 177.668 3.59687 180.935 3.23029C184.202 2.86372 187.504 3.49575 190.403 5.04275C193.302 6.58975 195.662 8.97879 197.171 11.8938C198.68 14.8087 199.266 18.1122 198.853 21.367C204.081 22.1373 208.983 24.3705 212.992 27.8077C217 31.245 219.951 35.7455 221.501 40.7877C224.265 50.932 219.569 62.8505 210.196 67.6527C209.114 68.212 207.819 68.9448 207.858 70.1405C207.965 70.8622 208.288 71.5347 208.786 72.0691C211.8 76.3698 210.293 82.5991 206.853 86.4948C203.413 90.3905 198.273 92.4541 193.326 94.4212C194.426 95.5224 195.16 96.9355 195.426 98.4679C195.692 100 195.478 101.577 194.814 102.984C193.38 105.8 191.149 108.134 188.398 109.695C177.653 116.619 164.358 114.459 152.318 114.71C141.207 114.941 130.172 107.863 122.81 99.8405C121.379 98.3169 120.239 95.5398 122.037 94.4598Z" fill="#2F2E41"/>
<path d="M165.635 115.809C163.702 115.809 161.77 115.809 159.992 115.809C157.48 115.809 154.852 115.693 152.378 115.809C142.291 115.982 131.121 110.332 122.115 100.631C121.482 99.9968 120.984 99.2407 120.651 98.4086C120.319 97.5765 120.16 96.6858 120.183 95.7903C120.172 95.72 120.172 95.6485 120.183 95.5782C117.581 95.4535 115.062 94.6276 112.893 93.1883C110.724 91.7491 108.986 89.7502 107.864 87.4042C106.742 85.0582 106.278 82.4527 106.521 79.8645C106.765 77.2764 107.706 74.8024 109.245 72.7054C102.578 69.0411 98.4232 60.7675 99.003 52.1275C99.4861 44.7411 102.984 37.2776 109.38 29.9104C114.946 23.5076 120.511 19.8433 126.425 18.7054L127.082 18.5897C128.012 18.5532 128.917 18.2831 129.714 17.8044C130.512 17.3257 131.175 16.6538 131.643 15.8511C137.711 8.13687 143.798 3.39259 150.33 1.21331C158.388 -1.4674 167.22 0.403308 172.225 5.74544C174.859 3.71586 178.026 2.49156 181.343 2.22066C184.659 1.94976 187.984 2.64388 190.913 4.21903C193.843 5.79418 196.253 8.18286 197.851 11.0961C199.449 14.0093 200.166 17.3222 199.917 20.634C205.138 21.5757 210.001 23.9295 213.974 27.439C217.947 30.9485 220.879 35.479 222.45 40.5368C225.387 51.3175 220.189 63.6797 210.642 68.5204C209.676 69.0025 208.806 69.5425 208.826 70.1211C208.922 70.5213 209.114 70.892 209.386 71.2011L209.56 71.4518C213 76.3118 211.048 83.1197 207.473 87.0539C203.937 90.5178 199.672 93.153 194.989 94.7682C195.835 96.0319 196.346 97.489 196.475 99.0034C196.603 100.518 196.345 102.04 195.724 103.427C194.245 106.401 191.91 108.865 189.018 110.505C181.848 115.134 173.732 115.809 165.635 115.809ZM154.523 113.726C156.359 113.726 158.214 113.726 160.031 113.726C169.693 113.919 179.645 114.131 187.897 108.808C190.497 107.362 192.604 105.173 193.946 102.521C194.545 101.292 194.747 99.9081 194.521 98.5601C194.296 97.2122 193.656 95.9677 192.69 94.9996C192.563 94.8924 192.466 94.7544 192.409 94.599C192.351 94.4436 192.335 94.2761 192.361 94.1125C192.388 93.9465 192.457 93.7901 192.562 93.6584C192.667 93.5268 192.804 93.4241 192.96 93.3603C197.482 91.5475 202.623 89.5032 206.043 85.6461C209.116 82.2711 210.836 76.4854 207.976 72.4354L207.802 72.2232C207.275 71.617 206.951 70.862 206.874 70.0632C206.874 68.1347 208.71 67.2089 209.734 66.6882C218.508 62.1754 223.261 50.874 220.556 40.9226C219.027 36.0861 216.164 31.7772 212.296 28.4892C208.427 25.2011 203.708 23.067 198.68 22.3311C198.43 22.293 198.205 22.1585 198.054 21.9565C197.902 21.7546 197.835 21.5014 197.869 21.2511C198.248 18.196 197.694 15.0976 196.278 12.3623C194.863 9.62701 192.652 7.38244 189.936 5.92289C187.22 4.46334 184.125 3.85694 181.058 4.18319C177.99 4.50944 175.093 5.75312 172.746 7.75116C172.649 7.8364 172.536 7.90091 172.413 7.94071C172.29 7.98051 172.16 7.99476 172.031 7.98258C171.904 7.97307 171.78 7.93732 171.667 7.87758C171.553 7.81784 171.454 7.7354 171.374 7.63544C167.026 2.35116 158.62 0.422593 150.967 2.98759C144.803 5.03187 139.005 9.5833 133.247 16.8926C132.564 17.8819 131.706 18.7382 130.715 19.419C129.695 19.961 128.579 20.3015 127.43 20.4219L126.811 20.5376C121.342 21.5983 116.125 25.0504 110.849 31.1061C104.742 38.1454 101.419 45.2425 100.955 52.1854C100.394 60.5168 104.569 68.424 111.139 71.4711C111.273 71.5331 111.39 71.6242 111.484 71.7376C111.578 71.8511 111.645 71.9841 111.68 72.1268C111.711 72.272 111.708 72.4224 111.671 72.5663C111.634 72.7101 111.564 72.8435 111.467 72.9561C109.874 74.8354 108.873 77.1433 108.591 79.5891C108.309 82.0348 108.758 84.5093 109.882 86.7009C111.005 88.8925 112.754 90.7034 114.907 91.9056C117.06 93.1077 119.521 93.6474 121.98 93.4568C122.2 93.4344 122.421 93.4896 122.605 93.613C122.788 93.7363 122.923 93.9198 122.985 94.1318C123.051 94.3388 123.044 94.5618 122.967 94.7648C122.89 94.9678 122.747 95.1389 122.56 95.2504C122.441 95.3164 122.339 95.4108 122.265 95.5251C122.191 95.6395 122.146 95.7703 122.135 95.9061C122.168 97.1369 122.681 98.3064 123.565 99.1653C132.106 108.461 142.89 113.9 152.339 113.707L154.523 113.726Z" fill="#2F2E41"/>
<path d="M260.054 376.899C264.48 376.899 297.467 380.467 312.908 388.123C328.348 395.779 331.692 396.377 328.561 406.714C325.43 417.052 298.24 419.597 277.543 415.702C264.213 412.967 251.355 408.301 239.377 401.854L260.054 376.899Z" fill="#4F54B1"/>
<path d="M297.06 418.459C290.456 418.433 283.87 417.788 277.387 416.531C263.966 413.775 251.018 409.084 238.95 402.606C238.838 402.539 238.741 402.45 238.664 402.343C238.588 402.237 238.534 402.117 238.506 401.989C238.483 401.864 238.489 401.734 238.522 401.611C238.556 401.488 238.616 401.373 238.699 401.276L259.376 376.32C259.452 376.218 259.551 376.135 259.666 376.078C259.78 376.021 259.906 375.991 260.033 375.992H260.227C265.618 375.992 297.833 379.657 313.293 387.313L316.771 389.029C329.158 395.085 332.501 396.744 329.41 406.965C327.458 413.445 314.742 418.459 297.06 418.459ZM240.747 401.584C252.384 407.715 264.829 412.176 277.716 414.834C298.49 418.691 324.849 415.952 327.728 406.464C330.376 397.669 328.463 396.724 315.998 390.63L312.52 388.914C297.775 381.604 266.237 377.882 260.459 377.766L240.747 401.584Z" fill="#4F54B1"/>
<path d="M264.48 376.802C267.398 377.515 269.937 379.303 271.59 381.807C273.242 384.311 273.884 387.345 273.389 390.302C271.939 401.276 248.691 401.739 247.358 401.874C246.025 402.009 264.48 376.802 264.48 376.802Z" fill="#FBBEBE"/>
<path d="M247.357 402.491C247.185 402.485 247.016 402.437 246.867 402.349C246.719 402.261 246.595 402.138 246.507 401.989C246.217 401.411 245.753 400.524 263.764 376.204C263.867 376.063 264.011 375.955 264.177 375.897C264.342 375.838 264.522 375.831 264.691 375.877C264.788 375.877 275.803 378.634 274.354 390.264C272.885 401.43 251.705 402.414 247.473 402.491H247.357ZM264.749 377.747C259.087 385.462 250.662 397.033 248.555 400.697C253.85 400.446 271.262 398.961 272.441 390.032C272.895 387.419 272.37 384.731 270.965 382.48C269.561 380.229 267.376 378.572 264.827 377.824L264.749 377.747Z" fill="#FBBEBE"/>
<path d="M92.1798 401.931C91.5034 402.279 85.1842 410.475 57.627 413.753C30.0699 417.032 19.847 422.953 13.7017 408.508C7.55646 394.063 11.7693 384.729 25.2966 380.601C38.824 376.474 76.2948 373.061 83.6382 379.965C90.9817 386.869 92.1798 401.931 92.1798 401.931Z" fill="#4F54B1"/>
<path d="M27.3075 418.652C20.4859 418.652 16.0992 416.376 12.8912 408.855C9.68332 401.334 9.20021 394.873 11.5385 389.878C13.7029 385.249 18.2635 381.836 25.0659 379.772C37.7816 375.915 76.4118 371.942 84.2577 379.329C91.7751 386.387 92.9732 401.237 93.0312 401.854C93.0401 402.018 93.0054 402.18 92.9307 402.326C92.8561 402.472 92.744 402.595 92.606 402.684L92.3355 402.915C84.393 410.128 69.1457 413.271 57.7054 414.621C51.7727 415.335 46.671 416.164 42.2456 416.897C37.3165 417.849 32.3235 418.436 27.3075 418.652ZM62.9811 376.879C49.7436 376.879 33.704 378.981 25.6263 381.45C19.2877 383.379 15.0749 386.464 13.1425 390.63C11.0167 395.143 11.4805 401.044 14.5145 408.161C19.0558 418.864 25.7615 417.804 41.9171 415.161C46.4391 414.429 51.5795 413.599 57.5315 412.886C68.7013 411.555 83.6007 408.508 91.1953 401.604C90.9248 399.077 89.2628 386.599 83.0209 380.659C80.2382 377.921 72.2957 376.879 62.9811 376.879Z" fill="#4F54B1"/>
<path d="M100.973 396.03C100.973 396.03 88.4696 406.444 80.1406 405.21C71.8116 403.976 60.294 399.424 64.932 390.456C69.5699 381.489 99.4268 376.089 99.4268 376.089L100.973 396.03Z" fill="#FBBEBE"/>
<path d="M81.5706 406.194C81.0467 406.194 80.5234 406.156 80.0053 406.078C73.7634 405.152 66.2267 402.491 63.8111 397.766C63.2147 396.555 62.9323 395.215 62.9897 393.867C63.0471 392.519 63.4425 391.207 64.1396 390.052C68.9322 380.756 98.0353 375.452 99.2721 375.221C99.3938 375.2 99.5185 375.205 99.6383 375.235C99.7581 375.264 99.8703 375.319 99.9678 375.394C100.066 375.472 100.147 375.568 100.207 375.677C100.267 375.787 100.304 375.907 100.316 376.031L101.862 395.953C101.872 396.094 101.85 396.235 101.796 396.366C101.743 396.496 101.659 396.612 101.552 396.705C101.05 397.11 90.0542 406.194 81.5706 406.194ZM98.6344 377.149C93.5133 378.152 69.6472 383.224 65.7822 390.862C65.2121 391.769 64.8812 392.805 64.8204 393.874C64.7596 394.943 64.9708 396.01 65.4344 396.975C67.5601 401.083 74.5171 403.474 80.3338 404.342C87.426 405.403 98.074 397.264 100.122 395.644L98.6344 377.149Z" fill="#FBBEBE"/>
<path d="M251.165 308.55C251.165 308.55 237.985 359.85 189.886 369.647C141.787 379.444 116.896 376.86 99.8518 344.46C82.8073 312.06 94.0543 292.234 94.0543 292.234L245.851 289.226L251.165 308.55Z" fill="#231F20"/>
<path d="M150.212 375.645C127.022 375.645 110.925 367.584 98.9819 344.904C81.8988 312.407 92.7787 292.582 93.1845 291.752C93.2688 291.607 93.3899 291.485 93.5356 291.401C93.6814 291.316 93.8468 291.271 94.0155 291.27L245.812 288.262C246.031 288.251 246.247 288.316 246.423 288.446C246.599 288.576 246.725 288.763 246.778 288.975L252.034 308.261C252.073 308.426 252.073 308.597 252.034 308.762C251.899 309.283 238.159 360.834 190.002 370.573C174.793 373.717 161.633 375.645 150.212 375.645ZM94.6918 293.18C93.1845 296.362 85.5705 315.223 100.702 344.017C117.998 376.802 143.216 378.191 189.596 368.702C234.874 359.484 249 312.33 250.063 308.55L245.058 290.21L94.6918 293.18Z" fill="#231F20"/>
<path d="M82.7308 309.013C82.7308 309.013 57.8598 228.784 61.1257 178.507C64.3916 128.229 83.1173 126.435 108.665 123.6C120.008 122.327 180.437 113.398 203.066 139.974C225.696 166.55 265.524 291.019 265.524 291.019L82.7308 309.013Z" fill="#4F54B1"/>
<path d="M172.493 123.735L168.628 150.581C168.628 150.581 160.164 164.447 143.216 157.427C126.268 150.407 125.939 137.467 125.939 137.467L133.979 87.8638C133.979 87.8638 151.854 71.8566 159.371 41.2695C159.371 41.2695 174.348 67.3438 196.088 73.2066C196.088 73.2066 194.639 94.8645 190.755 108.287C186.89 121.267 172.763 123.581 172.493 123.735Z" fill="#FBBEBE"/>
<path d="M152.301 160.359C149.014 160.319 145.768 159.624 142.754 158.314C125.362 151.14 124.898 138.045 124.879 137.486L132.976 87.7094C133.015 87.4888 133.123 87.2862 133.285 87.1308C133.459 86.9765 151.025 70.9694 158.407 41.038C158.46 40.8542 158.565 40.6894 158.709 40.5629C158.853 40.4365 159.03 40.3537 159.219 40.3244C159.408 40.2978 159.6 40.3275 159.772 40.4099C159.944 40.4923 160.088 40.6236 160.185 40.7873C160.34 41.0573 175.239 66.5915 196.284 72.2615C196.502 72.3193 196.692 72.4512 196.823 72.6343C196.953 72.8174 197.016 73.0403 196.999 73.2644C196.999 73.4765 195.492 95.1922 191.627 108.557C188.438 119.569 178.099 123.349 173.384 124.506L169.519 150.716C169.501 150.843 169.462 150.967 169.403 151.082C167.499 153.876 164.953 156.175 161.978 157.789C159.004 159.402 155.686 160.283 152.301 160.359ZM134.908 88.3265L126.908 137.621C126.908 137.929 127.488 149.848 143.605 156.54C158.659 162.769 166.794 151.68 167.722 150.234L171.587 123.6C171.605 123.454 171.658 123.314 171.742 123.193C171.827 123.072 171.939 122.974 172.07 122.906C172.248 122.803 172.445 122.737 172.65 122.713C176.805 121.729 186.815 118.316 189.791 108.017C193.192 96.2722 194.738 77.9122 195.028 73.9201C176.863 68.5972 163.683 49.9094 159.741 43.7187C152.397 70.873 136.996 86.2051 134.908 88.3265Z" fill="#FBBEBE"/>
<path d="M144.395 88.616C144.178 86.107 143.146 83.7371 141.457 81.8661C139.815 80.1851 137.893 78.8017 135.776 77.7775C134.678 77.1 133.444 76.672 132.162 76.5239C131.255 76.5328 130.357 76.7093 129.515 77.0446C127.457 77.6996 125.702 79.0678 124.567 80.9018C123.82 82.4576 123.469 84.1731 123.543 85.8968C123.467 87.7621 123.636 89.6295 124.046 91.451C124.5 93.2699 125.313 94.9799 126.438 96.481C127.562 97.982 128.976 99.2437 130.596 100.192C132.216 101.141 134.01 101.757 135.871 102.004C137.733 102.252 139.626 102.126 141.438 101.634" fill="#FBBEBE"/>
<path d="M137.766 103.003C134.403 103.006 131.136 101.888 128.482 99.8269C125.828 97.7655 123.94 94.8787 123.118 91.6245C122.67 89.7303 122.488 87.7831 122.577 85.8388C122.508 83.9605 122.9 82.0938 123.717 80.4003C124.948 78.3841 126.86 76.8727 129.108 76.1381C130.07 75.7652 131.091 75.5691 132.123 75.5596C133.555 75.71 134.935 76.1779 136.162 76.9289C138.371 78.0052 140.378 79.4535 142.095 81.2103C143.928 83.2422 145.047 85.815 145.283 88.5388C145.3 88.7936 145.216 89.0447 145.05 89.2391C144.884 89.4334 144.649 89.5557 144.394 89.5803C144.14 89.5917 143.891 89.5065 143.698 89.3418C143.504 89.1772 143.38 88.9454 143.351 88.6931C143.161 86.3984 142.232 84.2267 140.703 82.5024C139.133 80.9104 137.295 79.605 135.273 78.6453C134.309 78.0287 133.22 77.6334 132.084 77.4881C131.302 77.4947 130.527 77.6518 129.804 77.951C127.979 78.5134 126.407 79.6933 125.359 81.2874C124.703 82.7119 124.398 84.2726 124.471 85.8388C124.378 87.6206 124.541 89.4065 124.954 91.1424C125.379 92.8306 126.136 94.4177 127.181 95.8113C128.226 97.2049 129.539 98.3772 131.042 99.2601C132.545 100.143 134.209 100.719 135.938 100.954C137.666 101.19 139.424 101.08 141.109 100.631C141.355 100.566 141.617 100.6 141.838 100.727C142.058 100.853 142.22 101.061 142.288 101.306C142.32 101.429 142.327 101.557 142.31 101.682C142.292 101.808 142.249 101.929 142.185 102.038C142.12 102.148 142.035 102.243 141.933 102.319C141.831 102.396 141.715 102.451 141.592 102.482C140.346 102.826 139.059 103.001 137.766 103.003Z" fill="#FBBEBE"/>
<path d="M168.687 80.9595C168.687 80.9595 176.281 95.9059 173.788 98.0466C171.295 100.187 165.305 97.8345 165.305 97.8345" fill="#FBBEBE"/>
<path d="M170.677 99.9176C168.691 99.8564 166.731 99.4586 164.879 98.7411C164.761 98.6944 164.654 98.6248 164.563 98.5365C164.471 98.4482 164.399 98.3428 164.348 98.2263C164.298 98.1099 164.271 97.9847 164.27 97.8579C164.268 97.7312 164.291 97.6053 164.338 97.4876C164.437 97.2528 164.623 97.0654 164.857 96.9647C165.091 96.864 165.356 96.8579 165.594 96.9476C167.005 97.4876 171.392 98.7411 173.073 97.314C174.097 96.4654 171.546 88.8669 167.759 81.384C167.699 81.2718 167.663 81.1487 167.653 81.0223C167.642 80.8958 167.657 80.7684 167.696 80.6478C167.736 80.5272 167.8 80.4159 167.883 80.3203C167.967 80.2248 168.069 80.1471 168.184 80.0919C168.413 79.9826 168.675 79.9657 168.917 80.0447C169.158 80.1237 169.359 80.2926 169.479 80.5162C171.856 85.2219 177.112 96.4076 174.349 98.7797C173.29 99.5647 171.995 99.9661 170.677 99.9176Z" fill="#231F20"/>
<path d="M159.252 77.581C159.397 75.7973 158.481 74.2672 157.204 74.1634C155.928 74.0595 154.775 75.4213 154.629 77.205C154.483 78.9886 155.4 80.5187 156.677 80.6226C157.953 80.7264 159.106 79.3647 159.252 77.581Z" fill="#231F20"/>
<path d="M183.193 80.8825C183.326 79.0978 182.398 77.5742 181.121 77.4792C179.844 77.3843 178.701 78.754 178.567 80.5386C178.434 82.3233 179.362 83.847 180.639 83.9419C181.916 84.0369 183.059 82.6671 183.193 80.8825Z" fill="#231F20"/>
<path d="M166.713 111.875C163.758 111.927 160.834 111.265 158.19 109.946C153.572 107.535 150.615 102.926 149.397 96.2533C149.375 96.1278 149.378 95.9993 149.406 95.875C149.434 95.7507 149.486 95.6332 149.56 95.5292C149.634 95.4252 149.727 95.3368 149.835 95.2691C149.943 95.2013 150.064 95.1557 150.19 95.1347C150.44 95.0947 150.696 95.1525 150.905 95.2962C151.114 95.4399 151.259 95.6583 151.311 95.9061C152.393 101.962 155.021 106.108 159.041 108.23C167.157 112.473 178.578 107.343 178.694 107.285C178.927 107.18 179.192 107.172 179.431 107.263C179.67 107.353 179.864 107.534 179.969 107.767C180.024 107.882 180.054 108.006 180.06 108.133C180.065 108.26 180.044 108.387 179.999 108.506C179.954 108.625 179.885 108.733 179.797 108.825C179.709 108.917 179.603 108.99 179.486 109.04C175.45 110.794 171.113 111.757 166.713 111.875Z" fill="#231F20"/>
<path d="M172.494 123.735C172.494 123.735 155.101 125.163 146.135 118.104C146.135 118.104 153.768 142.211 169.808 142.134L172.494 123.735Z" fill="#DAA3A3"/>
<path d="M169.69 143.098C153.187 143.098 145.496 119.396 145.167 118.393C145.11 118.195 145.117 117.985 145.186 117.791C145.256 117.597 145.384 117.43 145.554 117.313C145.717 117.186 145.917 117.118 146.124 117.118C146.33 117.118 146.531 117.186 146.694 117.313C155.332 124.044 172.202 122.752 172.376 122.732C172.52 122.722 172.665 122.744 172.799 122.797C172.933 122.85 173.054 122.932 173.152 123.038C173.25 123.143 173.323 123.269 173.366 123.407C173.409 123.544 173.421 123.689 173.401 123.832L170.714 142.25C170.673 142.49 170.547 142.707 170.359 142.863C170.172 143.018 169.934 143.102 169.69 143.098ZM148.047 120.534C150.501 126.57 157.458 140.552 168.937 141.15L171.314 124.777C167.603 124.931 156.163 125.047 148.085 120.534H148.047Z" fill="#DAA3A3"/>
<path d="M89.5127 128.075C53.8197 123.639 20.3105 274.858 39.7899 289.226C70.1685 311.655 162.889 281.029 162.889 281.029L153.613 241.127C153.613 241.127 86.6912 244.31 85.4738 230.597C84.2563 216.885 122.867 152.606 117.456 143.233C112.045 133.86 89.5127 128.075 89.5127 128.075Z" fill="#4F54B1"/>
<path d="M214.137 242.246C213.924 242.252 213.717 242.178 213.556 242.039C213.395 241.9 213.292 241.705 213.268 241.494C208.668 209.248 198.581 155.248 195.315 152.085C195.156 151.919 195.068 151.699 195.068 151.469C195.069 151.24 195.159 151.019 195.319 150.855C195.479 150.69 195.697 150.593 195.927 150.585C196.157 150.578 196.381 150.659 196.552 150.812C200.745 154.882 211.528 216.827 215.007 241.243C215.04 241.476 214.979 241.712 214.838 241.9C214.697 242.088 214.486 242.213 214.253 242.246H214.137Z" fill="#494DA5"/>
<path d="M179.99 318.54L118.383 301.318L231.53 280.084L292.77 305.696L179.99 318.54Z" fill="white"/>
<path d="M179.991 319.562C179.908 319.581 179.822 319.581 179.74 319.562L118.132 302.205C117.876 302.205 117.63 302.104 117.449 301.923C117.268 301.742 117.166 301.497 117.166 301.241C117.166 300.985 117.268 300.74 117.449 300.559C117.63 300.378 117.876 300.277 118.132 300.277L231.279 279.062C231.455 279.005 231.644 279.005 231.82 279.062L293.06 304.674C293.256 304.757 293.419 304.902 293.524 305.087C293.629 305.271 293.67 305.486 293.64 305.696C293.611 305.909 293.512 306.106 293.358 306.257C293.204 306.407 293.004 306.501 292.79 306.525L180.107 319.562H179.991ZM122.635 301.569L180.068 317.634L288.983 305.233L231.414 281.164L122.635 301.569Z" fill="#231F20"/>
<path d="M143.642 254.917C157.17 256.402 169.711 257.366 182.292 262.631C189.481 265.644 196.27 269.531 202.506 274.202C205.683 276.452 208.652 278.983 211.376 281.762C213.54 284.115 212.844 286.41 209.211 285.272C204.987 283.952 200.986 282.001 197.346 279.487C206.05 286.574 213.765 294.792 220.284 303.922C221.019 304.963 221.734 306.448 220.864 307.374C219.995 308.3 218.062 307.374 216.999 306.41L197.887 288.32C202.947 292.676 207.25 297.837 210.622 303.594C211.105 304.423 211.569 305.522 211.067 306.275C210.216 307.682 208.052 306.622 206.892 305.445C201.168 299.677 195.962 293.417 191.336 286.738L201.655 302.167C201.558 302.451 201.404 302.714 201.205 302.939C201.005 303.164 200.762 303.347 200.491 303.478C200.219 303.609 199.925 303.685 199.624 303.701C199.323 303.718 199.021 303.675 198.737 303.575C197.601 303.106 196.617 302.332 195.897 301.337L183.393 287.008L190.776 297.152C191.935 298.734 193.094 301.01 191.761 302.495C190.428 303.98 187.413 302.495 185.712 300.99C178.872 294.761 171.36 289.308 163.315 284.732C160.397 283.016 157.904 280.682 154.677 279.699C150.039 278.272 144.241 278.465 139.41 277.925" fill="#FBBEBE"/>
<path d="M219.936 308.685C218.645 308.54 217.443 307.954 216.535 307.027L210.351 301.241C210.757 301.877 211.162 302.533 211.53 303.17C211.921 303.672 212.169 304.271 212.247 304.902C212.325 305.533 212.231 306.174 211.974 306.757C211.801 307.054 211.56 307.306 211.272 307.494C210.983 307.681 210.655 307.799 210.312 307.837C209.581 307.827 208.86 307.666 208.195 307.364C207.53 307.062 206.934 306.625 206.447 306.082C205.172 304.809 203.935 303.517 202.718 302.225C202.726 302.295 202.726 302.366 202.718 302.437C202.644 302.794 202.496 303.131 202.283 303.427C202.07 303.723 201.796 303.97 201.481 304.153C201.064 304.402 200.6 304.563 200.118 304.626C199.636 304.689 199.146 304.653 198.679 304.52C197.379 304.011 196.252 303.141 195.432 302.012L193.152 299.409C193.436 300.037 193.536 300.733 193.441 301.416C193.345 302.098 193.057 302.74 192.611 303.266C192.332 303.577 191.993 303.828 191.615 304.004C191.236 304.179 190.825 304.276 190.408 304.288C188.39 304.068 186.521 303.122 185.151 301.627C178.378 295.431 170.923 290.022 162.928 285.504C161.942 284.925 160.995 284.27 160.068 283.575C158.379 282.261 156.495 281.22 154.483 280.49C151.113 279.639 147.658 279.173 144.183 279.101C142.521 279.005 140.897 278.908 139.371 278.754C139.138 278.725 138.926 278.605 138.781 278.421C138.636 278.237 138.571 278.003 138.598 277.77C138.61 277.656 138.644 277.545 138.7 277.445C138.755 277.344 138.83 277.255 138.919 277.183C139.009 277.111 139.113 277.058 139.223 277.026C139.334 276.995 139.45 276.985 139.564 276.999C141.071 277.153 142.656 277.25 144.279 277.346C147.898 277.415 151.497 277.9 155.005 278.792C157.183 279.587 159.229 280.706 161.073 282.11C161.962 282.746 162.87 283.363 163.817 283.922C171.921 288.518 179.485 294.004 186.369 300.277C187.414 301.337 188.765 302.045 190.234 302.302C190.413 302.295 190.59 302.253 190.753 302.176C190.915 302.1 191.061 301.992 191.181 301.858C192.224 300.72 190.794 298.502 190.137 297.596L182.755 287.471C182.686 287.383 182.635 287.281 182.606 287.173C182.576 287.065 182.568 286.952 182.583 286.841C182.597 286.73 182.633 286.623 182.689 286.525C182.745 286.428 182.82 286.343 182.91 286.275C183.072 286.116 183.291 286.027 183.518 286.027C183.746 286.027 183.965 286.116 184.127 286.275L196.65 300.605C197.26 301.458 198.097 302.126 199.065 302.533C199.294 302.597 199.533 302.615 199.769 302.585C200.004 302.555 200.232 302.479 200.437 302.36C200.56 302.296 200.666 302.203 200.746 302.09L190.678 286.989C190.547 286.797 190.498 286.561 190.542 286.333C190.585 286.106 190.718 285.904 190.91 285.774C191.102 285.643 191.339 285.595 191.567 285.638C191.795 285.681 191.997 285.813 192.128 286.005C196.733 292.637 201.905 298.857 207.587 304.597C208.217 305.286 209.075 305.724 210.003 305.831C210.079 305.829 210.154 305.806 210.218 305.766C210.283 305.725 210.335 305.667 210.37 305.6C210.583 305.272 210.37 304.655 209.926 303.806C207.599 299.833 204.817 296.144 201.635 292.813L197.326 288.725C197.186 288.559 197.112 288.349 197.117 288.132C197.123 287.916 197.207 287.71 197.354 287.551C197.501 287.392 197.701 287.293 197.916 287.271C198.132 287.249 198.348 287.306 198.524 287.432C200.051 288.744 201.5 290.113 202.891 291.56L217.656 305.542C218.229 306.193 219.018 306.617 219.878 306.737C219.956 306.741 220.034 306.725 220.105 306.691C220.175 306.657 220.237 306.607 220.284 306.545C220.728 306.082 220.284 305.04 219.646 304.192C213.174 295.129 205.519 286.969 196.881 279.93C196.723 279.78 196.626 279.577 196.608 279.36C196.59 279.143 196.653 278.927 196.784 278.753C196.915 278.579 197.106 278.46 197.32 278.417C197.534 278.375 197.756 278.412 197.944 278.522C201.497 280.991 205.407 282.903 209.539 284.192C210.892 284.617 211.607 284.443 211.742 284.192C211.877 283.942 211.742 283.093 210.795 282.09C208.114 279.345 205.183 276.853 202.041 274.646C195.867 270.023 189.142 266.182 182.021 263.21C170.677 258.485 159.333 257.27 147.236 255.977L143.468 255.553C143.353 255.541 143.242 255.507 143.141 255.452C143.04 255.396 142.951 255.322 142.879 255.232C142.807 255.142 142.754 255.039 142.722 254.929C142.691 254.819 142.681 254.703 142.695 254.589C142.707 254.475 142.741 254.364 142.797 254.263C142.852 254.162 142.926 254.073 143.016 254.002C143.106 253.93 143.209 253.877 143.32 253.845C143.431 253.813 143.547 253.804 143.661 253.817L147.526 254.222C159.681 255.534 171.141 256.768 182.716 261.59C189.972 264.589 196.827 268.476 203.123 273.161C206.354 275.454 209.368 278.036 212.129 280.875C213.52 282.38 213.945 284.019 213.25 285.118C212.844 285.735 211.762 286.661 209.037 285.812C207.464 285.333 205.922 284.76 204.418 284.096C210.597 289.866 216.184 296.236 221.095 303.112C222.429 305.04 222.603 306.602 221.617 307.682C221.406 307.914 221.15 308.101 220.864 308.23C220.578 308.359 220.269 308.429 219.955 308.435L219.936 308.685Z" fill="#FBBEBE"/>
<path d="M292.77 305.696L320.965 230.385L205.808 232.661L179.99 318.54L292.77 305.696Z" fill="white"/>
<path d="M179.991 319.562C179.851 319.564 179.711 319.533 179.584 319.473C179.457 319.413 179.345 319.325 179.257 319.215C179.156 319.093 179.085 318.949 179.052 318.795C179.018 318.64 179.022 318.48 179.064 318.328L204.882 232.449C204.944 232.254 205.065 232.084 205.227 231.96C205.39 231.836 205.586 231.764 205.79 231.754L320.947 229.479C321.104 229.476 321.261 229.512 321.402 229.582C321.543 229.653 321.665 229.756 321.758 229.884C321.842 230.014 321.896 230.161 321.916 230.314C321.936 230.468 321.922 230.624 321.874 230.771L293.679 305.985C293.616 306.156 293.507 306.305 293.364 306.418C293.22 306.53 293.049 306.6 292.868 306.621L180.107 319.562H179.991ZM206.544 233.664L181.422 317.479L292.153 304.866L319.632 231.426L206.544 233.664Z" fill="#231F20"/>
<path d="M286.626 306.39C286.626 306.39 317.874 331.712 306.898 354.932C295.921 378.152 96.2575 404.689 96.2575 404.689L87.2715 374.334C87.2715 374.334 243.899 294.491 286.626 306.39Z" fill="#231F20"/>
<path d="M96.255 405.654C96.0467 405.651 95.8447 405.582 95.6781 405.457C95.5114 405.332 95.3887 405.158 95.3274 404.959L86.3414 374.604C86.2727 374.391 86.2838 374.16 86.3726 373.954C86.4615 373.748 86.622 373.582 86.8245 373.485C87.211 373.273 126.498 353.312 170.52 335.029C229.751 310.44 268.883 300.489 286.817 305.465C286.952 305.502 287.077 305.567 287.184 305.657C292.637 310.281 297.481 315.575 301.6 321.414C310.219 333.795 312.306 345.521 307.63 355.357C296.46 378.769 104.545 404.554 96.3903 405.634L96.255 405.654ZM88.4091 374.797L96.9507 403.571C110.903 401.642 295.513 376.224 305.89 354.489C316.094 333.043 288.498 309.187 286.102 307.239C245.481 296.42 100.12 369.011 88.5251 374.835L88.4091 374.797Z" fill="#231F20"/>
<path d="M76.9308 294.761C76.9308 294.761 231.974 357.324 270.411 373.832L248.071 408.277C248.071 408.277 104.913 405.48 63.8672 369.589C22.8214 333.699 25.5462 273.952 76.9308 294.761Z" fill="#231F20"/>
<path d="M248.071 409.279C247.723 409.279 211.76 408.527 171.255 403.397C116.759 396.473 80.4283 385.365 63.2486 370.341C41.7594 351.557 26.7054 318.578 38.5322 299.428C42.3971 293.063 52.7166 283.903 77.3364 293.854C78.8824 294.491 232.824 356.629 270.836 372.926C270.965 372.978 271.081 373.059 271.175 373.163C271.268 373.266 271.337 373.39 271.377 373.523C271.415 373.659 271.425 373.801 271.405 373.941C271.385 374.08 271.336 374.214 271.261 374.333L248.921 408.836C248.831 408.977 248.704 409.092 248.555 409.17C248.406 409.248 248.239 409.285 248.071 409.279ZM57.8956 291.405C49.9531 291.405 43.8658 294.452 40.1555 300.431C31.0342 315.223 38.6288 346.273 64.5047 368.895C103.56 403.05 237.906 407.1 247.549 407.331L269 374.256C229.307 357.285 78.1287 296.265 76.5827 295.648C70.6805 293.061 64.3383 291.621 57.8956 291.405Z" fill="#231F20"/>
<path d="M293.369 275.629C293.535 276.519 293.921 277.354 294.49 278.059L297.504 282.553C297.394 282.089 297.183 281.654 296.887 281.28C296.59 280.906 296.214 280.602 295.787 280.388C295.359 280.175 294.89 280.058 294.412 280.045C293.934 280.033 293.459 280.125 293.021 280.316C292.165 280.778 291.454 281.468 290.966 282.309C290.478 283.149 290.233 284.108 290.258 285.079C290.344 287.019 290.803 288.925 291.61 290.692C293.755 296.246 298.606 304.365 305.621 300.161C310.375 297.307 311.689 287.239 312.365 282.225C313.699 272.351 310.665 259.661 297.949 261.589C298.316 266.452 300.133 271.093 303.167 274.916C301.099 272.91 292.731 269.805 293.369 275.629Z" fill="#FBBEBE"/>
<path d="M301.737 302.205C300.96 302.21 300.188 302.08 299.456 301.819C294.876 300.257 292.016 294.375 290.722 291C289.878 289.127 289.4 287.111 289.311 285.06C289.279 283.92 289.573 282.794 290.158 281.814C290.743 280.834 291.596 280.04 292.615 279.525C293.089 279.31 293.603 279.198 294.123 279.197L293.698 278.561C293.038 277.732 292.599 276.75 292.422 275.706C292.268 274.941 292.375 274.145 292.725 273.447C293.075 272.748 293.648 272.186 294.355 271.849C296.336 271.239 298.476 271.397 300.345 272.293C298.489 269.055 297.38 265.444 297.099 261.724C297.086 261.502 297.156 261.283 297.295 261.108C297.434 260.934 297.632 260.817 297.852 260.779C299.786 260.357 301.794 260.41 303.703 260.934C305.612 261.458 307.364 262.438 308.81 263.788C313.351 268.262 314.105 276.324 313.274 282.399C312.52 287.953 311.167 297.924 306.104 300.971C304.794 301.785 303.28 302.213 301.737 302.205ZM294.239 280.991C293.927 280.987 293.618 281.046 293.33 281.164C292.627 281.557 292.046 282.136 291.65 282.836C291.255 283.537 291.061 284.333 291.089 285.137C291.165 286.965 291.598 288.76 292.364 290.421C293.33 292.89 295.997 298.811 300.094 300.199C300.939 300.469 301.836 300.542 302.713 300.411C303.591 300.281 304.427 299.951 305.157 299.447C309.505 296.844 310.819 287.046 311.457 282.341C312.249 276.555 311.612 269.034 307.592 264.984C306.451 263.912 305.079 263.117 303.581 262.658C302.084 262.2 300.5 262.092 298.954 262.341C299.451 266.731 301.172 270.894 303.92 274.356C304.062 274.53 304.13 274.751 304.112 274.974C304.094 275.196 303.991 275.404 303.824 275.552C303.659 275.707 303.441 275.793 303.215 275.793C302.989 275.793 302.771 275.707 302.606 275.552C301.312 274.279 297.041 272.466 295.128 273.392C294.703 273.585 294.161 274.029 294.297 275.533C294.466 276.276 294.795 276.974 295.263 277.577L296.886 279.969C297.312 280.244 297.671 280.61 297.938 281.04C298.206 281.47 298.374 281.954 298.432 282.456C298.453 282.653 298.407 282.851 298.302 283.019C298.197 283.187 298.039 283.314 297.852 283.382C297.668 283.448 297.466 283.45 297.28 283.387C297.094 283.324 296.935 283.2 296.828 283.035L295.63 281.261C295.198 281.052 294.718 280.958 294.239 280.991Z" fill="#FBBEBE"/>
<path d="M249.83 366.696C249.709 366.715 249.585 366.715 249.463 366.696C246.081 365.385 166.154 334.509 148.143 323.496C147.919 323.357 147.759 323.135 147.698 322.879C147.636 322.623 147.678 322.353 147.815 322.127C147.882 322.015 147.971 321.916 148.077 321.839C148.183 321.761 148.304 321.705 148.431 321.675C148.559 321.644 148.692 321.639 148.822 321.661C148.951 321.682 149.075 321.729 149.187 321.799C167.043 332.715 249.347 364.517 250.178 364.826C250.426 364.921 250.627 365.11 250.735 365.352C250.844 365.594 250.852 365.87 250.758 366.118C250.678 366.295 250.547 366.444 250.382 366.547C250.217 366.65 250.025 366.702 249.83 366.696Z" fill="white"/>
<path d="M156.608 240.761C174.229 240.761 188.514 227.265 188.514 210.617C188.514 193.97 174.229 180.474 156.608 180.474C138.988 180.474 124.703 193.97 124.703 210.617C124.703 227.265 138.988 240.761 156.608 240.761Z" fill="#231F20"/>
<path d="M156.608 241.706C138.481 241.706 123.756 227.763 123.756 210.618C123.756 193.473 138.501 179.51 156.608 179.51C174.715 179.51 189.46 193.473 189.46 210.618C189.46 227.763 174.735 241.706 156.608 241.706ZM156.608 181.438C139.544 181.438 125.688 194.533 125.688 210.618C125.688 226.702 139.564 239.778 156.608 239.778C173.653 239.778 187.528 226.702 187.528 210.618C187.528 194.533 173.672 181.438 156.608 181.438Z" fill="#231F20"/>
<path d="M139.777 220.415L132.047 215.902V209.942L139.777 205.43C142.353 203.951 144.93 202.447 147.507 200.917V208.13C146.135 208.978 144.763 209.807 143.391 210.598C142.018 211.389 140.666 212.199 139.274 213.067L143.391 215.342L147.507 217.637V224.927L139.777 220.415Z" fill="white"/>
<path d="M149.688 226.837L158.789 192.277L163.543 194.417L154.403 228.919L149.688 226.837Z" fill="white"/>
<path d="M173.556 205.43L181.286 209.942V215.902L173.556 220.415L165.826 224.927V217.637L169.942 215.342L174.059 213.067C172.686 212.199 171.314 211.37 169.942 210.598C168.57 209.827 167.218 208.978 165.826 208.13V200.917L173.556 205.43Z" fill="white"/>
<path d="M90.4593 294.491C90.203 294.506 89.9512 294.419 89.7591 294.249C89.567 294.079 89.4505 293.84 89.4351 293.584C89.4197 293.329 89.5068 293.077 89.6771 292.886C89.8474 292.694 90.0871 292.578 90.3434 292.562L136.723 286.95L144.086 249.902L84.6619 244.888C84.5198 244.878 84.3818 244.837 84.258 244.767C84.1342 244.697 84.0279 244.6 83.9468 244.483C83.8601 244.369 83.801 244.237 83.7742 244.096C83.7474 243.956 83.7536 243.811 83.7923 243.673L108.219 152.915C108.285 152.659 108.451 152.44 108.679 152.306C108.908 152.172 109.18 152.135 109.436 152.201C109.693 152.268 109.912 152.433 110.046 152.661C110.18 152.889 110.218 153.16 110.151 153.416L86.0146 243.075L145.284 247.974C145.42 247.988 145.551 248.03 145.671 248.096C145.79 248.163 145.895 248.252 145.979 248.359C146.06 248.469 146.118 248.594 146.148 248.727C146.177 248.86 146.179 248.997 146.153 249.131L138.423 287.914C138.382 288.113 138.279 288.293 138.13 288.431C137.982 288.57 137.794 288.658 137.592 288.686L90.4593 294.375V294.491Z" fill="#494DA5"/>
<path d="M345.857 32.5913H249.504V42.5437H345.857V32.5913Z" fill="#E6E7E8"/>
<path d="M453.418 32.5913H357.064V42.5437H453.418V32.5913Z" fill="#E6E7E8"/>
<path d="M345.857 49.6399H289.293V59.5923H345.857V49.6399Z" fill="#4F54B1"/>
<path d="M442.654 49.6399H357.064V59.5923H442.654V49.6399Z" fill="#E6E7E8"/>
<path d="M345.856 66.7075H274.566V76.6599H345.856V66.7075Z" fill="#E6E7E8"/>
<path d="M397.26 66.7075H357.064V76.6599H397.26V66.7075Z" fill="#E6E7E8"/>
<path d="M345.874 83.7561H304.287V93.7085H345.874V83.7561Z" fill="#E6E7E8"/>
<path d="M435.794 83.7561H357.064V93.7085H435.794V83.7561Z" fill="#4F54B1"/>
<path d="M345.857 100.824H332.619V110.776H345.857V100.824Z" fill="#4F54B1"/>
<path d="M409.956 100.824H357.064V110.776H409.956V100.824Z" fill="#E6E7E8"/>
<path d="M344.195 170.947H255.648V182.345H344.195V170.947Z" fill="#4F54B1"/>
<path d="M412.798 170.947H358.418V182.345H412.798V170.947Z" fill="#E6E7E8"/>
<path d="M344.175 190.464H272.287V201.862H344.175V190.464Z" fill="#E6E7E8"/>
<path d="M437.592 190.464H358.418V201.862H437.592V190.464Z" fill="#E6E7E8"/>
<path d="M344.175 210H308.23V221.398H344.175V210Z" fill="#E6E7E8"/>
<path d="M452.568 210H358.418V221.398H452.568V210Z" fill="#E6E7E8"/>
<path d="M344.176 229.537H330.707V240.934H344.176V229.537Z" fill="#E6E7E8"/>
<path d="M458.482 229.537H358.418V240.934H458.482V229.537Z" fill="#4F54B1"/>
<path d="M425.63 249.054H358.418V260.452H425.63V249.054Z" fill="#E6E7E8"/>
<path d="M392.485 146.222L385.219 143.33V139.472L392.485 136.58L399.751 133.687V138.277C398.437 138.836 397.142 139.357 395.886 139.858C394.63 140.36 393.297 140.88 392.021 141.44L395.886 142.905L399.751 144.371V149.038L392.485 146.222Z" fill="#E6E7E8"/>
<path d="M401.898 150.33L410.517 128.209L415.039 129.559L406.362 151.777L401.898 150.33Z" fill="#E6E7E8"/>
<path d="M424.43 136.637C426.846 137.602 429.281 138.566 431.696 139.53V143.387L424.43 146.28L417.164 149.173V144.448L421.029 142.982L424.894 141.517C423.58 140.957 422.285 140.437 421.029 139.935C419.773 139.434 418.439 138.913 417.164 138.354V133.745L424.43 136.637Z" fill="#E6E7E8"/>
<path d="M252.033 8.87037C252.031 8.4233 252.13 7.98146 252.323 7.57822C252.492 7.16743 252.749 6.79872 253.077 6.49822C253.398 6.20142 253.772 5.96609 254.178 5.80394C254.614 5.62564 255.08 5.53392 255.55 5.53394C255.996 5.53801 256.436 5.62977 256.845 5.80394C257.244 5.97072 257.61 6.20567 257.927 6.49822C258.237 6.8101 258.486 7.17622 258.662 7.57822C258.84 7.98568 258.932 8.42563 258.932 8.87037C258.932 9.32132 258.84 9.76755 258.662 10.1818C258.48 10.5636 258.232 10.9098 257.927 11.2039C257.281 11.8063 256.435 12.1496 255.55 12.1682C255.08 12.1682 254.614 12.0765 254.178 11.8982C253.768 11.7434 253.393 11.5073 253.077 11.2039C252.755 10.921 252.498 10.5724 252.323 10.1818C252.129 9.77182 252.03 9.32365 252.033 8.87037ZM252.033 20.1718C252.043 19.7302 252.14 19.2948 252.319 18.8909C252.498 18.487 252.756 18.1227 253.077 17.8189C253.392 17.5095 253.767 17.2668 254.178 17.1054C254.615 16.9337 255.081 16.8485 255.55 16.8546C255.994 16.8521 256.434 16.9373 256.845 17.1054C257.249 17.2717 257.616 17.514 257.927 17.8189C258.236 18.1236 258.485 18.4834 258.662 18.8796C258.84 19.2906 258.932 19.7336 258.932 20.1814C258.932 20.6292 258.84 21.0722 258.662 21.4832C258.485 21.8737 258.236 22.2271 257.927 22.5246C257.61 22.8172 257.244 23.0522 256.845 23.2189C256.434 23.387 255.994 23.4722 255.55 23.4696C255.081 23.4758 254.615 23.3906 254.178 23.2189C253.772 23.0568 253.398 22.8214 253.077 22.5246C252.751 22.2383 252.493 21.8823 252.323 21.4832C252.128 21.0739 252.028 20.6253 252.033 20.1718Z" fill="#E6E7E8"/>
<path d="M364.873 333.371C365.637 333.41 366.392 333.193 367.018 332.754C367.559 332.349 367.81 331.5 367.81 330.189V324.21C367.809 323.22 367.939 322.235 368.197 321.279C368.437 320.388 368.844 319.551 369.395 318.81C369.957 318.098 370.67 317.519 371.482 317.113C372.449 316.663 373.508 316.445 374.574 316.477H378.922V322.687H377.396C377.047 322.652 376.696 322.713 376.379 322.863C376.063 323.012 375.793 323.244 375.598 323.535C375.264 324.122 375.097 324.789 375.115 325.464V331.558C375.137 332.33 374.999 333.098 374.709 333.814C374.477 334.368 374.15 334.877 373.743 335.319C373.388 335.7 372.961 336.008 372.487 336.225C372.109 336.424 371.695 336.549 371.27 336.592C371.69 336.669 372.099 336.799 372.487 336.977C372.959 337.18 373.386 337.475 373.743 337.845C374.673 338.873 375.165 340.222 375.115 341.606V347.719C375.091 348.395 375.258 349.063 375.598 349.648C375.79 349.942 376.059 350.179 376.376 350.332C376.693 350.484 377.045 350.548 377.396 350.516H378.922V356.726H374.574C373.508 356.757 372.449 356.539 371.482 356.089C370.67 355.684 369.957 355.104 369.395 354.392C368.848 353.649 368.442 352.813 368.197 351.924C367.94 350.961 367.81 349.969 367.81 348.973V342.994C367.877 342.538 367.841 342.072 367.704 341.632C367.567 341.191 367.332 340.787 367.018 340.449C366.392 340.009 365.637 339.792 364.873 339.832V333.371Z" fill="#E6E7E8"/>
<path d="M431.619 339.793C430.849 339.754 430.088 339.971 429.455 340.41C429.144 340.751 428.912 341.155 428.775 341.595C428.638 342.035 428.6 342.5 428.663 342.956V348.934C428.663 349.931 428.533 350.923 428.276 351.885C428.039 352.777 427.633 353.615 427.078 354.354C426.525 355.075 425.81 355.656 424.991 356.051C424.024 356.501 422.965 356.719 421.899 356.687H417.551V350.419H419.097C419.444 350.448 419.792 350.383 420.105 350.23C420.418 350.077 420.684 349.843 420.875 349.552C421.215 348.967 421.382 348.298 421.358 347.623V341.509C421.338 340.744 421.476 339.982 421.764 339.272C422 338.711 422.334 338.195 422.749 337.749C423.1 337.381 423.52 337.086 423.986 336.881C424.382 336.705 424.797 336.575 425.223 336.495C424.791 336.45 424.372 336.326 423.986 336.129C423.517 335.912 423.097 335.604 422.749 335.222C422.329 334.787 421.995 334.276 421.764 333.718C421.474 333.002 421.336 332.234 421.358 331.462V325.348C421.376 324.673 421.209 324.006 420.875 323.419C420.682 323.132 420.415 322.901 420.102 322.752C419.789 322.603 419.442 322.54 419.097 322.571H417.551V316.477H421.899C422.965 316.445 424.024 316.663 424.991 317.113C425.81 317.507 426.525 318.089 427.078 318.81C427.636 319.546 428.044 320.385 428.276 321.279C428.534 322.235 428.664 323.22 428.663 324.21V330.189C428.598 330.648 428.636 331.116 428.773 331.559C428.909 332.003 429.142 332.41 429.455 332.754C430.088 333.193 430.849 333.41 431.619 333.371V339.793Z" fill="#E6E7E8"/>
</svg>
