<svg width="531" height="458" viewBox="0 0 531 458" fill="none" xmlns="http://www.w3.org/2000/svg">
<ellipse opacity="0.1" cx="393.929" cy="300.5" rx="393.929" ry="315.5" fill="#BD9C41"/>
<path d="M375.839 470.881H220.699L227.471 448.877L233.994 427.649H362.544L364.948 435.473L375.839 470.881Z" fill="#3F3D56"/>
<path d="M375.842 471.764H220.632C220.494 471.767 220.358 471.736 220.235 471.675C220.112 471.613 220.005 471.522 219.925 471.411C219.841 471.298 219.785 471.168 219.76 471.03C219.735 470.892 219.743 470.75 219.783 470.616L233.079 427.384C233.135 427.204 233.248 427.047 233.401 426.936C233.554 426.825 233.738 426.765 233.927 426.766H362.476C362.665 426.765 362.85 426.825 363.002 426.936C363.155 427.047 363.268 427.204 363.325 427.384L376.691 470.545C376.731 470.68 376.739 470.821 376.714 470.959C376.69 471.097 376.633 471.228 376.549 471.34C376.477 471.465 376.374 471.569 376.251 471.644C376.127 471.718 375.986 471.759 375.842 471.764ZM221.905 469.998H374.64L361.893 428.532H234.599L221.905 469.998Z" fill="#2D2C3F"/>
<path d="M364.95 435.473L227.473 448.877L233.996 427.649H362.546L364.95 435.473Z" fill="#2D2C3F"/>
<path d="M227.473 449.653C227.358 449.654 227.245 449.628 227.141 449.579C227.037 449.531 226.945 449.459 226.872 449.371C226.793 449.27 226.739 449.152 226.714 449.026C226.69 448.9 226.695 448.77 226.731 448.647L233.254 427.455C233.306 427.298 233.405 427.161 233.538 427.062C233.671 426.964 233.832 426.91 233.997 426.907H362.546C362.712 426.91 362.872 426.964 363.005 427.062C363.138 427.161 363.237 427.298 363.289 427.455L365.693 435.278C365.727 435.387 365.737 435.502 365.722 435.615C365.706 435.728 365.667 435.836 365.605 435.932C365.538 436.028 365.452 436.11 365.351 436.171C365.25 436.232 365.138 436.27 365.021 436.285L227.544 449.689L227.473 449.653ZM234.545 428.461L228.534 448.029L363.89 434.819L361.927 428.461H234.545Z" fill="#2D2C3F"/>
<path d="M499.069 144.189H97.4749C91.4406 144.189 86.5488 149.075 86.5488 155.103V418.342C86.5488 424.37 91.4406 429.256 97.4749 429.256H499.069C505.104 429.256 509.995 424.37 509.995 418.342V155.103C509.995 149.075 505.104 144.189 499.069 144.189Z" fill="#3F3D56"/>
<path d="M499.068 430.122H97.4564C94.3289 430.122 91.3294 428.881 89.118 426.672C86.9065 424.463 85.6641 421.466 85.6641 418.342V155.085C85.6641 153.538 85.9691 152.007 86.5617 150.578C87.1543 149.149 88.0229 147.85 89.118 146.756C90.213 145.662 91.513 144.795 92.9437 144.203C94.3744 143.611 95.9078 143.306 97.4564 143.306H499.068C502.198 143.306 505.199 144.547 507.413 146.755C509.627 148.964 510.874 151.96 510.878 155.085V418.342C510.874 421.468 509.627 424.464 507.413 426.673C505.199 428.881 502.198 430.122 499.068 430.122ZM97.4564 145.072C94.7978 145.072 92.248 146.127 90.3681 148.005C88.4882 149.883 87.432 152.43 87.432 155.085V418.342C87.432 420.998 88.4882 423.545 90.3681 425.423C92.248 427.301 94.7978 428.356 97.4564 428.356H499.068C501.729 428.356 504.28 427.301 506.163 425.424C508.046 423.547 509.106 421 509.111 418.342V155.085C509.106 152.428 508.046 149.881 506.163 148.004C504.28 146.127 501.729 145.072 499.068 145.072H97.4564Z" fill="#3F3D56"/>
<path d="M493.922 161.708H102.6V411.72H493.922V161.708Z" fill="white"/>
<path d="M493.923 412.603H102.601C102.366 412.603 102.141 412.51 101.976 412.345C101.81 412.179 101.717 411.954 101.717 411.72V161.708C101.717 161.474 101.81 161.249 101.976 161.084C102.141 160.918 102.366 160.825 102.601 160.825H493.923C494.158 160.825 494.383 160.918 494.548 161.084C494.714 161.249 494.807 161.474 494.807 161.708V411.72C494.807 411.954 494.714 412.179 494.548 412.345C494.383 412.51 494.158 412.603 493.923 412.603ZM103.485 400.837C103.485 406.36 107.962 410.837 113.485 410.837H483.039C488.562 410.837 493.039 406.36 493.039 400.837V172.591C493.039 167.068 488.562 162.591 483.039 162.591H113.485C107.962 162.591 103.485 167.068 103.485 172.591V400.837Z" fill="#3F3D56"/>
<path d="M212.868 186.767C212.868 186.767 163.029 213.875 158.379 288.489L221.319 300.851L237.955 242.732L212.868 186.767Z" fill="#4F54B1"/>
<path d="M226.765 144.913C215.963 132.993 205.408 119.801 202.332 104.013C201.366 100.409 201.608 96.5878 203.021 93.1342C204.665 89.8142 208.767 87.5007 212.197 88.9312C210.641 84.7458 213.169 80.1012 216.104 76.8164C223.283 68.6546 233.222 63.4233 244.02 62.1233C242.366 61.0547 241.009 59.5843 240.078 57.8496C239.638 56.9695 239.539 55.9581 239.8 55.0097C240.061 54.0613 240.664 53.2425 241.492 52.7106C242.375 52.366 243.336 52.2743 244.268 52.4457C247.784 52.8878 251.095 54.3421 253.797 56.6311C251.481 55.6245 251.357 51.9688 253.249 50.3088C254.262 49.5614 255.474 49.1292 256.732 49.0663C257.99 49.0035 259.238 49.3128 260.321 49.9556C262.48 51.2698 264.345 53.013 265.802 55.077C265.587 54.5783 265.498 54.0344 265.543 53.4933C265.589 52.9522 265.767 52.4307 266.063 51.9749C266.358 51.5191 266.762 51.1431 267.237 50.8802C267.713 50.6173 268.246 50.4757 268.79 50.4677C269.685 50.5831 270.539 50.91 271.282 51.4214C281.501 57.5141 287.813 69.0814 288.697 81.0018C289.302 92.9899 285.673 104.809 278.443 114.397C271.211 123.901 261.945 131.672 251.322 137.143C242.907 141.699 232.334 145.108 224.025 140.322" fill="#2F2E41"/>
<path d="M226.766 145.796C226.643 145.798 226.521 145.774 226.408 145.725C226.296 145.677 226.195 145.604 226.112 145.514C215.133 133.381 204.56 119.995 201.466 104.189C200.476 100.387 200.743 96.3668 202.227 92.7281C203.006 91.1076 204.256 89.7592 205.814 88.8583C207.372 87.9575 209.165 87.546 210.96 87.6773C210.2 83.1034 213.347 78.6354 215.433 76.2337C222.288 68.452 231.615 63.2638 241.847 61.5406C240.731 60.638 239.831 59.4976 239.212 58.2029C238.672 57.1229 238.554 55.8806 238.881 54.7182C239.208 53.5559 239.956 52.5568 240.98 51.9159C242.01 51.4956 243.139 51.3791 244.233 51.5804C246.573 51.8679 248.839 52.5864 250.916 53.6996C250.872 52.9489 250.993 52.1978 251.271 51.499C251.549 50.8002 251.977 50.1709 252.525 49.6554C253.675 48.7825 255.058 48.2696 256.499 48.1816C257.94 48.0935 259.375 48.4344 260.623 49.1609C262.216 50.0248 263.641 51.1673 264.83 52.534C264.955 52.1691 265.121 51.8195 265.325 51.4921C265.694 50.8905 266.215 50.3971 266.836 50.0621C267.457 49.7271 268.156 49.5624 268.861 49.5848C269.894 49.7112 270.881 50.0804 271.743 50.662C281.803 56.6664 288.645 68.322 289.582 80.9312C290.224 93.1313 286.529 105.166 279.151 114.909C271.854 124.516 262.488 132.362 251.747 137.867C241.299 143.501 232.3 144.931 225.334 141.911C226.023 142.706 226.731 143.501 227.438 144.278C227.521 144.36 227.586 144.457 227.631 144.565C227.676 144.673 227.699 144.788 227.699 144.904C227.699 145.021 227.676 145.136 227.631 145.244C227.586 145.352 227.521 145.449 227.438 145.531C227.257 145.704 227.016 145.799 226.766 145.796ZM224.008 139.439C224.163 139.447 224.314 139.489 224.45 139.562C232.671 144.295 243.367 140.428 250.969 136.366C261.46 130.938 270.6 123.232 277.719 113.814C284.825 104.421 288.399 92.8315 287.814 81.0725C286.895 68.9578 280.388 57.9026 270.806 52.1808C270.181 51.752 269.469 51.4683 268.72 51.3508C268.335 51.3678 267.96 51.4768 267.627 51.6686C267.293 51.8604 267.011 52.1295 266.803 52.4531C266.595 52.7767 266.468 53.1454 266.432 53.5283C266.397 53.9111 266.454 54.2969 266.598 54.6532C266.704 54.8468 266.732 55.0734 266.676 55.2867C266.62 55.5 266.485 55.684 266.298 55.8011C266.117 55.9244 265.896 55.9747 265.68 55.942C265.463 55.9092 265.267 55.7958 265.131 55.6245C263.727 53.6712 261.955 52.0097 259.915 50.7327C258.983 50.1827 257.911 49.9135 256.829 49.9574C255.747 50.0012 254.701 50.3563 253.816 50.9799C253.424 51.365 253.13 51.8391 252.961 52.3619C252.792 52.8846 252.751 53.4405 252.843 53.9821C252.906 54.3867 253.057 54.7726 253.285 55.1124C253.639 55.3773 254.01 55.6598 254.346 55.96C254.508 56.0947 254.616 56.2837 254.648 56.4918C254.681 56.6999 254.636 56.9127 254.523 57.0903C254.41 57.2676 254.239 57.4 254.039 57.4645C253.839 57.529 253.622 57.5216 253.427 57.4435C252.887 57.2 252.41 56.8378 252.03 56.3839C249.695 54.7298 246.986 53.6801 244.145 53.3287C243.383 53.1815 242.595 53.2425 241.864 53.5053C241.244 53.9383 240.801 54.5802 240.616 55.3132C240.431 56.0462 240.516 56.8213 240.857 57.4965C241.757 59.0848 243.032 60.4304 244.569 61.417C244.708 61.525 244.812 61.6712 244.869 61.8375C244.925 62.0038 244.932 62.1829 244.888 62.3529C244.844 62.5251 244.747 62.6792 244.61 62.7933C244.474 62.9073 244.305 62.9757 244.127 62.9887C233.552 64.2866 223.821 69.4139 216.777 77.3992C214.708 79.7657 211.473 84.3749 213.047 88.631C213.106 88.7934 213.117 88.9698 213.077 89.1381C213.037 89.3065 212.948 89.4594 212.822 89.5779C212.696 89.6965 212.538 89.7753 212.367 89.8048C212.196 89.8342 212.021 89.8129 211.862 89.7436C208.856 88.472 205.214 90.7149 203.835 93.5228C202.456 96.3307 202.35 99.3859 203.217 103.854C205.833 117.275 214.125 129.019 223.371 139.739C223.45 139.646 223.547 139.572 223.657 139.52C223.767 139.468 223.886 139.44 224.008 139.439Z" fill="#2F2E41"/>
<path d="M398.119 411.72H233.697C232.124 396.903 230.957 386.872 230.957 386.872L388.165 356.162C389.243 363.667 392.921 384.011 398.119 411.72Z" fill="#231F20"/>
<path d="M398.116 412.497H233.695C233.503 412.498 233.317 412.429 233.174 412.301C233.03 412.174 232.938 411.999 232.917 411.808C231.361 397.151 230.194 387.084 230.176 386.961C230.155 386.765 230.209 386.569 230.327 386.412C230.446 386.254 230.619 386.148 230.813 386.113L388.021 355.402C388.121 355.377 388.226 355.375 388.327 355.396C388.428 355.417 388.523 355.462 388.604 355.526C388.692 355.588 388.768 355.666 388.825 355.757C388.883 355.848 388.922 355.95 388.94 356.056C389.983 363.296 393.431 382.546 398.894 411.579C398.918 411.69 398.916 411.805 398.888 411.915C398.861 412.025 398.808 412.128 398.735 412.214C398.66 412.305 398.565 412.378 398.458 412.427C398.351 412.476 398.234 412.5 398.116 412.497ZM234.384 410.943H397.179C391.999 383.358 388.657 364.815 387.49 357.08L231.785 387.543C232.086 389.998 233.093 398.864 234.384 410.943Z" fill="#231F20"/>
<path d="M316.293 119.589C316.293 119.589 320.554 130.185 334.185 141.081L345.553 128.843L322.834 99.792L316.293 119.589Z" fill="white"/>
<path d="M334.188 142.07C333.989 142.067 333.797 141.999 333.64 141.875C319.992 130.962 315.66 120.454 315.483 120.012C315.412 119.813 315.412 119.594 315.483 119.394L322.025 99.6152C322.074 99.4618 322.164 99.3248 322.286 99.219C322.407 99.1131 322.556 99.0425 322.714 99.0147C322.871 98.9822 323.034 98.9948 323.185 99.051C323.335 99.1073 323.466 99.2049 323.563 99.3326L346.246 128.295C346.383 128.455 346.458 128.658 346.458 128.869C346.458 129.079 346.383 129.283 346.246 129.443L334.896 141.699C334.813 141.81 334.707 141.901 334.584 141.965C334.462 142.029 334.327 142.065 334.188 142.07ZM317.234 119.642C318.012 121.408 322.538 130.538 334.1 139.968L344.39 128.789L323.174 101.646L317.234 119.642Z" fill="#231F20"/>
<path d="M343.222 118.847C343.222 118.847 320.769 137.143 323.173 141.275C325.578 145.408 357.437 168.436 357.454 168.436C354.767 166.511 344.018 168.436 340.941 168.436C326.798 168.754 312.73 169.614 298.74 171.015C279.025 172.914 259.438 175.962 240.079 180.145C232.335 181.911 219.606 182.617 212.87 186.767C206.134 190.917 207.99 196.675 209.952 204.286C210.819 207.641 211.72 211.032 212.428 214.423C225.21 270.564 226.288 329.548 230.938 386.872C230.938 386.872 347.96 390.405 395.236 359.711L369.141 226.026C369.141 226.026 462.171 233.337 471.683 197.911C481.194 162.485 343.222 118.847 343.222 118.847Z" fill="#4F54B1"/>
<path d="M285.444 159.483L293.382 185.973C293.382 185.973 293.576 199.094 274.624 200.295C255.671 201.496 249.289 190.158 249.289 190.158L236.259 140.304C236.259 140.304 245.01 129.355 232.387 102.176C232.387 102.176 262.23 102.176 287.424 90.697C287.424 90.697 297.749 122.679 299.799 136.984C301.85 151.288 285.444 159.483 285.444 159.483Z" fill="#FBBEBE"/>
<path d="M271.903 201.231C254.789 201.231 248.919 191.006 248.583 190.635C248.571 190.565 248.571 190.493 248.583 190.423L235.536 140.551C235.503 140.417 235.503 140.277 235.533 140.142C235.564 140.007 235.625 139.881 235.712 139.774C235.712 139.668 243.916 128.825 231.717 102.582C231.659 102.446 231.635 102.299 231.648 102.152C231.661 102.005 231.709 101.863 231.789 101.739C231.87 101.615 231.979 101.513 232.108 101.441C232.238 101.37 232.382 101.331 232.53 101.328C232.813 101.328 262.479 101.152 287.213 89.9199C287.327 89.8677 287.451 89.8406 287.576 89.8406C287.701 89.8406 287.825 89.8677 287.938 89.9199C288.05 89.9703 288.151 90.0434 288.233 90.1346C288.315 90.2258 288.377 90.3332 288.416 90.4497C288.522 90.7853 298.776 122.679 300.791 136.895C302.718 149.981 289.688 158.246 286.648 160.012L294.374 185.778C294.391 185.86 294.391 185.944 294.374 186.025C294.374 186.167 294.374 199.995 274.785 201.231C273.671 201.195 272.734 201.231 271.903 201.231ZM250.121 189.752C250.793 190.882 257.193 200.454 274.555 199.359C291.686 198.282 292.464 187.385 292.5 186.061L284.597 159.73C284.538 159.53 284.552 159.316 284.636 159.125C284.72 158.934 284.869 158.779 285.056 158.688C285.216 158.688 300.968 150.547 298.97 137.054C297.114 124.339 288.61 97.2135 286.895 91.8272C265.043 101.47 239.814 102.776 233.75 102.953C244.588 127.059 238.647 138.273 237.286 140.41L250.121 189.752Z" fill="#FBBEBE"/>
<path d="M244.165 136.26C242.819 134.021 240.776 132.284 238.348 131.315C236.076 130.517 233.685 130.111 231.277 130.114C229.949 129.975 228.607 130.138 227.352 130.591C226.503 131.031 225.746 131.631 225.124 132.357C223.507 133.879 222.486 135.926 222.242 138.132C222.267 139.917 222.728 141.669 223.586 143.235C224.363 145.01 225.374 146.673 226.591 148.18C227.845 149.657 229.38 150.871 231.107 151.75C232.834 152.629 234.719 153.156 236.653 153.3C238.586 153.445 240.528 153.204 242.367 152.592C244.206 151.98 245.905 151.008 247.365 149.734" fill="#FBBEBE"/>
<path d="M237.654 154.149C237.265 154.149 236.894 154.149 236.505 154.149C232.39 153.818 228.574 151.868 225.897 148.728C224.624 147.162 223.566 145.434 222.75 143.589C221.848 141.89 221.364 140.001 221.336 138.079C221.58 135.653 222.691 133.395 224.465 131.721C225.17 130.937 226.023 130.301 226.976 129.849C228.35 129.329 229.827 129.136 231.29 129.284C233.824 129.275 236.341 129.699 238.733 130.538C241.33 131.587 243.519 133.445 244.974 135.836C245.035 135.935 245.075 136.046 245.093 136.161C245.111 136.277 245.106 136.394 245.078 136.508C245.05 136.621 245 136.728 244.93 136.822C244.861 136.915 244.773 136.995 244.673 137.054C244.471 137.173 244.23 137.208 244.002 137.151C243.774 137.095 243.578 136.953 243.453 136.754C242.225 134.694 240.365 133.084 238.149 132.163C235.942 131.407 233.623 131.025 231.29 131.032C230.095 130.899 228.886 131.038 227.754 131.439C227.016 131.812 226.356 132.321 225.809 132.94C224.349 134.308 223.416 136.146 223.175 138.132C223.217 139.774 223.647 141.384 224.43 142.829C225.17 144.534 226.146 146.127 227.329 147.562C229.721 150.345 233.112 152.076 236.77 152.383C238.586 152.517 240.41 152.289 242.137 151.713C243.864 151.137 245.459 150.224 246.83 149.028C246.911 148.946 247.007 148.88 247.113 148.836C247.219 148.791 247.334 148.768 247.449 148.768C247.564 148.768 247.678 148.791 247.784 148.836C247.891 148.88 247.987 148.946 248.068 149.028C248.15 149.11 248.216 149.208 248.261 149.315C248.306 149.423 248.329 149.538 248.329 149.655C248.329 149.771 248.306 149.887 248.261 149.994C248.216 150.102 248.15 150.2 248.068 150.282C245.187 152.8 241.482 154.176 237.654 154.149Z" fill="#FBBEBE"/>
<path d="M280.547 115.686C280.547 115.686 294.443 126.141 293.099 129.249C291.756 132.357 285.126 132.94 285.126 132.94" fill="#FBBEBE"/>
<path d="M285.127 133.823C284.907 133.819 284.697 133.734 284.537 133.584C284.377 133.433 284.278 133.229 284.261 133.01C284.249 132.895 284.26 132.779 284.293 132.668C284.327 132.557 284.383 132.455 284.457 132.366C284.531 132.277 284.622 132.204 284.725 132.151C284.828 132.097 284.941 132.066 285.056 132.057C286.824 131.915 291.368 131.068 292.287 128.913C292.871 127.589 287.125 121.743 280.018 116.392C279.925 116.323 279.847 116.236 279.787 116.136C279.728 116.036 279.689 115.926 279.673 115.811C279.657 115.696 279.663 115.579 279.692 115.467C279.721 115.355 279.771 115.249 279.841 115.156C279.911 115.063 279.998 114.985 280.098 114.926C280.198 114.867 280.308 114.828 280.423 114.812C280.538 114.795 280.655 114.802 280.767 114.831C280.88 114.859 280.986 114.91 281.078 114.98C285.428 118.247 295.381 126.211 293.914 129.602C292.446 132.993 285.94 133.752 285.215 133.805L285.127 133.823Z" fill="#231F20"/>
<path d="M259.012 112.843C259.012 112.843 262.07 104.666 269.231 109.77L259.012 112.843Z" fill="#FBBEBE"/>
<path d="M259.013 113.814H258.694C258.585 113.773 258.484 113.71 258.399 113.63C258.314 113.55 258.245 113.454 258.198 113.347C258.15 113.24 258.124 113.125 258.121 113.008C258.119 112.891 258.139 112.775 258.182 112.666C258.59 111.51 259.234 110.451 260.074 109.557C260.914 108.663 261.932 107.954 263.061 107.474C264.213 107.194 265.416 107.192 266.569 107.468C267.722 107.744 268.792 108.291 269.691 109.063C269.878 109.204 270.002 109.412 270.038 109.642C270.075 109.873 270.02 110.109 269.886 110.3C269.748 110.485 269.543 110.609 269.315 110.645C269.087 110.681 268.854 110.627 268.666 110.494C267.982 109.893 267.167 109.46 266.287 109.227C265.406 108.994 264.484 108.968 263.592 109.152C262.723 109.536 261.938 110.088 261.283 110.776C260.627 111.464 260.114 112.274 259.773 113.161C259.732 113.336 259.636 113.494 259.5 113.611C259.363 113.729 259.192 113.8 259.013 113.814Z" fill="#231F20"/>
<path d="M278.09 107.403C278.09 107.403 279.115 102.282 286.93 106.026L278.09 107.403Z" fill="#FBBEBE"/>
<path d="M278.088 108.269H277.893C277.782 108.246 277.676 108.201 277.582 108.137C277.488 108.073 277.407 107.991 277.345 107.896C277.282 107.801 277.239 107.694 277.218 107.582C277.197 107.471 277.198 107.356 277.221 107.244C277.374 106.621 277.66 106.037 278.06 105.534C278.46 105.031 278.964 104.621 279.538 104.331C281.447 103.377 284.064 103.695 287.317 105.249C287.53 105.35 287.695 105.531 287.774 105.753C287.854 105.975 287.842 106.219 287.741 106.432C287.64 106.645 287.459 106.81 287.237 106.889C287.014 106.969 286.77 106.957 286.556 106.856C283.869 105.567 281.712 105.231 280.351 105.902C280.001 106.074 279.694 106.322 279.452 106.627C279.211 106.933 279.04 107.289 278.954 107.668C278.891 107.846 278.773 108 278.618 108.108C278.462 108.216 278.277 108.272 278.088 108.269Z" fill="#231F20"/>
<path d="M285.443 159.483C285.443 159.483 271.6 163.315 264.121 161.249C264.121 161.249 273.827 175.589 289.969 175.377L285.443 159.483Z" fill="#DAA3A3"/>
<path d="M289.701 176.366C273.436 176.366 263.8 162.397 263.394 161.796C263.29 161.652 263.234 161.479 263.234 161.302C263.234 161.124 263.29 160.951 263.394 160.807C263.496 160.66 263.64 160.548 263.807 160.485C263.975 160.422 264.157 160.411 264.331 160.454C271.491 162.379 285.051 158.688 285.193 158.688C285.418 158.628 285.657 158.66 285.859 158.776C286.061 158.891 286.209 159.082 286.271 159.306L290.797 175.2C290.832 175.332 290.837 175.47 290.813 175.604C290.788 175.738 290.735 175.866 290.656 175.977C290.572 176.085 290.465 176.172 290.342 176.233C290.22 176.295 290.085 176.328 289.949 176.33L289.701 176.366ZM266.24 162.591C269.334 166.229 277.343 174.176 288.799 174.582L284.822 160.56C282.01 161.284 272.888 163.385 266.24 162.591Z" fill="#DAA3A3"/>
<path d="M400.789 40.896L282.512 146.202L426.601 99.2092L400.789 40.896Z" fill="#F8BB12"/>
<path d="M282.507 147.085C282.351 147.081 282.199 147.036 282.066 146.956C281.933 146.875 281.823 146.762 281.746 146.626C281.643 146.452 281.604 146.247 281.636 146.047C281.668 145.846 281.77 145.664 281.923 145.531L400.183 40.2423C400.287 40.1491 400.412 40.0815 400.547 40.0447C400.682 40.0079 400.823 40.003 400.961 40.0304C401.099 40.0565 401.228 40.1172 401.336 40.2068C401.444 40.2964 401.528 40.4119 401.579 40.5426L427.409 98.8205C427.461 98.931 427.488 99.0516 427.488 99.1737C427.488 99.2958 427.461 99.4164 427.409 99.5269C427.359 99.6388 427.286 99.739 427.194 99.8211C427.103 99.9032 426.996 99.9654 426.879 100.004L282.789 146.997C282.702 147.044 282.606 147.074 282.507 147.085ZM400.465 42.3615L286.255 144.048L425.394 98.6615L400.465 42.3615Z" fill="#F8BB12"/>
<path d="M316.296 119.589C323.368 118.724 331.129 111.589 330.44 103.942C329.68 94.035 320.274 98.3793 315.925 103.289C313.538 105.991 307.774 115.527 311.593 118.671C312.274 119.134 313.042 119.454 313.85 119.612C314.659 119.77 315.491 119.762 316.296 119.589Z" fill="#FBBEBE"/>
<path d="M315.042 120.56C313.635 120.632 312.25 120.2 311.134 119.342C310.659 118.94 310.273 118.444 310.002 117.884C309.73 117.324 309.58 116.714 309.561 116.092C309.207 111.73 313.221 105.108 315.36 102.706C318.454 99.1738 323.775 96.1363 327.506 97.4078C329.097 97.9553 331.042 99.5094 331.413 103.907C332.067 112.154 323.864 119.606 316.403 120.507C315.951 120.549 315.496 120.567 315.042 120.56ZM325.65 98.8559C322.803 98.8559 319.02 101.24 316.686 103.871C314.653 106.167 311.028 112.331 311.382 115.951C311.388 116.336 311.475 116.715 311.636 117.065C311.798 117.414 312.03 117.727 312.319 117.982C312.892 118.365 313.537 118.628 314.215 118.752C314.893 118.877 315.59 118.861 316.262 118.706C322.821 117.929 330.282 111.2 329.734 104.013C329.504 101.258 328.602 99.58 327.011 99.0502C326.57 98.9143 326.111 98.8488 325.65 98.8559Z" fill="#FBBEBE"/>
<path d="M275.703 140.745C275.703 140.745 286.611 143.465 283.535 151.977L275.703 140.745Z" fill="#FBBEBE"/>
<path d="M283.535 152.86C283.435 152.877 283.334 152.877 283.234 152.86C283.014 152.781 282.834 152.617 282.735 152.405C282.635 152.193 282.624 151.95 282.704 151.73C283.068 150.889 283.242 149.977 283.211 149.061C283.18 148.145 282.947 147.247 282.527 146.432C280.759 142.9 275.544 141.611 275.455 141.611C275.227 141.552 275.03 141.407 274.908 141.206C274.786 141.004 274.747 140.763 274.801 140.534C274.83 140.421 274.881 140.315 274.95 140.222C275.02 140.129 275.108 140.051 275.208 139.992C275.308 139.933 275.419 139.894 275.534 139.878C275.65 139.862 275.767 139.869 275.879 139.898C276.127 139.898 281.82 141.417 284.047 145.602C284.582 146.626 284.884 147.755 284.933 148.908C284.982 150.062 284.776 151.212 284.33 152.278C284.275 152.445 284.169 152.592 284.026 152.696C283.883 152.801 283.712 152.858 283.535 152.86Z" fill="#231F20"/>
<path d="M426.59 99.1611C435.406 95.8684 437.498 79.6906 431.26 63.0272C425.023 46.3637 412.82 35.5246 404.003 38.8173C395.186 42.11 393.095 58.2877 399.332 74.9512C405.57 91.6147 417.773 102.454 426.59 99.1611Z" fill="#231F20"/>
<path d="M423.345 100.657C414.611 100.657 404.127 90.2909 398.593 75.2976C392.193 58.2027 394.527 41.4787 403.773 38.0174C408.37 36.2514 413.851 38.0174 419.261 42.8209C425.08 48.3546 429.503 55.1875 432.167 62.759C435.131 70.2188 436.282 78.2742 435.526 86.2644C434.589 93.4343 431.566 98.3262 426.987 100.022C425.824 100.462 424.588 100.678 423.345 100.657ZM407.433 39.1299C406.394 39.1222 405.363 39.3078 404.392 39.6774C396.047 42.7855 394.191 58.4853 400.237 74.6795C406.284 90.8736 417.935 101.452 426.297 98.3791C430.24 96.9134 432.874 92.5337 433.705 86.0172C434.427 78.3124 433.306 70.5466 430.434 63.3594C427.893 56.0546 423.652 49.4571 418.058 44.11C414.328 40.843 410.633 39.1299 407.362 39.1299H407.433Z" fill="#231F20"/>
<path d="M407.268 204.801C407.126 204.796 406.987 204.76 406.862 204.695C373.076 187.141 334.145 150.461 333.756 150.09C333.674 150.009 333.608 149.913 333.564 149.807C333.519 149.701 333.496 149.587 333.496 149.472C333.496 149.357 333.519 149.243 333.564 149.137C333.608 149.03 333.674 148.934 333.756 148.854C333.838 148.771 333.936 148.705 334.044 148.66C334.152 148.616 334.267 148.593 334.384 148.593C334.5 148.593 334.616 148.616 334.724 148.66C334.831 148.705 334.929 148.771 335.011 148.854C335.4 149.225 375.536 184.71 407.71 203.158C407.816 203.21 407.91 203.283 407.986 203.372C408.063 203.462 408.121 203.565 408.158 203.677C408.194 203.789 408.207 203.907 408.197 204.024C408.187 204.141 408.154 204.255 408.099 204.359C408.015 204.502 407.893 204.619 407.746 204.697C407.599 204.775 407.434 204.81 407.268 204.801Z" fill="#494DA5"/>
<path d="M386.823 317.504C386.616 317.507 386.414 317.435 386.255 317.303C386.097 317.17 385.991 316.984 385.957 316.78L365.342 206.529C365.301 206.299 365.352 206.063 365.484 205.871C365.617 205.679 365.82 205.547 366.049 205.505C366.163 205.482 366.281 205.482 366.394 205.505C366.508 205.529 366.616 205.575 366.712 205.641C366.808 205.706 366.889 205.791 366.951 205.889C367.014 205.987 367.056 206.096 367.075 206.211L387.672 316.462C387.713 316.692 387.662 316.928 387.529 317.12C387.397 317.312 387.194 317.444 386.964 317.486L386.823 317.504Z" fill="#494DA5"/>
<path d="M279.648 199.588L270.949 211.35L279.612 216.648L290.821 326.051L314.229 338.325L324.536 315.226L286.719 215.164L290.98 207.429L279.648 199.588Z" fill="#231F20"/>
<path d="M314.227 339.19C314.087 339.189 313.948 339.159 313.82 339.102L290.412 326.828C290.284 326.76 290.173 326.661 290.09 326.542C290.007 326.422 289.954 326.284 289.935 326.14L278.779 217.178L270.487 212.092C270.382 212.031 270.292 211.946 270.225 211.845C270.158 211.744 270.114 211.629 270.098 211.509C270.072 211.391 270.071 211.268 270.096 211.149C270.12 211.031 270.169 210.919 270.24 210.82L278.938 199.059C279.079 198.877 279.283 198.756 279.51 198.72C279.736 198.684 279.968 198.735 280.158 198.864L291.473 206.705C291.651 206.831 291.776 207.017 291.825 207.229C291.874 207.44 291.843 207.663 291.738 207.853L287.69 215.235L325.365 314.926C325.445 315.136 325.445 315.369 325.365 315.579L315.04 338.678C314.991 338.788 314.92 338.887 314.832 338.968C314.744 339.05 314.64 339.114 314.527 339.155L314.227 339.19ZM291.65 325.486L313.803 337.107L323.579 315.208L285.904 215.482C285.847 215.37 285.817 215.246 285.817 215.12C285.817 214.994 285.847 214.87 285.904 214.758L289.776 207.694L279.822 200.789L272.202 211.103L280.034 215.906C280.149 215.977 280.246 216.073 280.319 216.186C280.393 216.299 280.44 216.426 280.459 216.56L291.65 325.486Z" fill="#231F20"/>
<path d="M248.1 209.479L52.7461 263.155L88.3122 392.309L283.666 338.633L248.1 209.479Z" fill="white"/>
<path d="M88.2973 393.195C88.1031 393.199 87.9129 393.139 87.7563 393.024C87.5997 392.909 87.4854 392.745 87.431 392.559L51.8772 263.394C51.8175 263.169 51.8491 262.93 51.9649 262.728C52.0808 262.527 52.2716 262.379 52.4959 262.317L247.857 208.648C248.073 208.568 248.312 208.568 248.528 208.648C248.734 208.763 248.886 208.953 248.953 209.178L284.507 338.343C284.566 338.568 284.535 338.807 284.419 339.009C284.303 339.21 284.112 339.358 283.888 339.42L88.5272 393.177L88.2973 393.195ZM53.8219 263.783L88.9161 391.235L282.509 338.096L247.468 210.591L53.8219 263.783Z" fill="#231F20"/>
<path d="M193.811 364.144C193.811 364.144 194.2 367.994 188.773 371.773C183.345 375.553 165.665 380.48 161.882 378.608C156.935 376.418 152.751 372.81 149.86 368.241C146.783 362.82 142.788 355.985 144.892 353.389C146.996 350.793 151.274 354.802 156.224 363.279C156.224 363.279 150.09 347.968 153.855 347.014C157.621 346.061 160.238 350.016 165.418 357.363C165.418 357.363 158.823 341.204 163.774 341.292C168.724 341.381 179.579 359.517 179.579 358.564C179.579 357.61 173.215 342.069 178.642 344.895C184.07 347.721 188.313 363.756 188.313 363.756L193.811 364.144Z" fill="#FBBEBE"/>
<path d="M164.512 379.897C163.478 379.953 162.445 379.778 161.489 379.385C156.388 377.121 152.079 373.388 149.113 368.665L148.777 368.065C145.506 362.308 141.811 355.791 144.251 352.824C144.533 352.447 144.907 352.149 145.337 351.957C145.767 351.765 146.239 351.687 146.708 351.729C148.476 351.871 150.633 353.601 153.108 356.868C152.083 353.336 151.34 349.222 152.224 347.367C152.363 347.073 152.564 346.812 152.815 346.605C153.065 346.397 153.359 346.247 153.674 346.166C156.945 345.354 159.314 347.491 162.514 351.747C161.347 347.897 160.41 343.358 161.736 341.451C161.962 341.11 162.273 340.834 162.639 340.651C163.006 340.468 163.414 340.385 163.822 340.409C167.358 340.409 172.45 347.085 177.188 353.813C175.562 348.515 175.013 345.248 176.392 344.082C176.834 343.694 177.683 343.394 179.08 344.082C184.225 346.767 188.167 359.835 189.033 362.89L193.913 363.226C194.121 363.242 194.316 363.33 194.465 363.475C194.613 363.621 194.706 363.814 194.726 364.021C194.726 364.197 195.098 368.436 189.316 372.462C184.808 375.606 171.301 379.897 164.512 379.897ZM146.443 353.407C146.273 353.414 146.107 353.458 145.958 353.538C145.808 353.617 145.677 353.73 145.577 353.866C143.915 355.897 147.751 362.696 150.28 367.129L150.615 367.729C153.429 372.145 157.49 375.63 162.284 377.742C165.466 379.332 182.704 374.846 188.273 370.979C189.408 370.323 190.4 369.448 191.193 368.405C191.985 367.362 192.561 366.172 192.888 364.904L188.238 364.568C188.056 364.549 187.884 364.476 187.742 364.36C187.601 364.244 187.497 364.089 187.442 363.915C186.293 359.553 182.386 347.791 178.213 345.619C177.994 345.468 177.737 345.383 177.471 345.372C177.047 345.795 177.082 348.003 179.752 355.968C180.082 356.768 180.319 357.603 180.459 358.458C180.458 358.653 180.396 358.843 180.282 359.001C180.168 359.159 180.007 359.278 179.822 359.341C179.08 359.57 179.009 359.447 176.834 356.338C174.129 352.436 166.934 342.21 163.752 342.069C163.637 342.058 163.522 342.077 163.416 342.123C163.311 342.17 163.22 342.242 163.15 342.334C161.913 344.1 164.211 351.959 166.244 356.921C166.326 357.122 166.329 357.345 166.254 357.548C166.179 357.75 166.03 357.917 165.838 358.016C165.651 358.124 165.43 358.157 165.219 358.108C165.009 358.058 164.826 357.931 164.706 357.751L164.087 356.886C159.119 349.822 157.016 347.049 154.081 347.773C153.975 347.773 153.869 347.773 153.762 348.056C152.684 350.175 155.195 358.246 157.033 362.855C157.095 363.057 157.083 363.274 156.998 363.467C156.914 363.661 156.763 363.817 156.573 363.909C156.383 364.001 156.166 364.022 155.962 363.968C155.757 363.914 155.579 363.788 155.46 363.614C150.032 354.343 147.256 353.442 146.62 353.389L146.443 353.407Z" fill="#FBBEBE"/>
<path d="M471.029 219.385C470.698 219.056 470.25 218.872 469.783 218.872C469.316 218.872 468.868 219.056 468.536 219.385C466.966 221.261 465.923 223.521 465.516 225.933C465.109 228.344 465.352 230.82 466.22 233.107C466.282 233.331 466.387 233.541 466.529 233.724C466.672 233.907 466.849 234.061 467.051 234.176C467.253 234.29 467.476 234.364 467.706 234.393C467.937 234.422 468.171 234.405 468.395 234.343C468.619 234.282 468.829 234.177 469.012 234.035C469.196 233.892 469.35 233.715 469.465 233.514C469.579 233.312 469.653 233.089 469.682 232.859C469.711 232.629 469.694 232.395 469.633 232.171C469.45 231.722 469.297 231.262 469.173 230.794C469.173 230.529 469.049 230.264 468.996 229.999C468.989 229.881 468.989 229.763 468.996 229.646C468.961 229.158 468.961 228.668 468.996 228.18C468.996 227.933 468.996 227.703 468.996 227.456C468.996 227.209 468.996 227.209 468.996 227.085C468.992 227.015 468.992 226.944 468.996 226.873C469.065 226.409 469.159 225.949 469.279 225.496C469.279 225.266 469.42 225.037 469.509 224.807C469.597 224.577 469.739 224.189 469.65 224.383C469.85 223.907 470.087 223.446 470.357 223.006C470.481 222.794 470.623 222.599 470.764 222.388C470.823 222.285 470.894 222.19 470.976 222.105L471.082 221.981C471.258 221.812 471.398 221.609 471.491 221.383C471.584 221.158 471.63 220.916 471.625 220.672C471.62 220.428 471.565 220.188 471.462 219.966C471.36 219.745 471.212 219.547 471.029 219.385Z" fill="#FFD45B"/>
<path d="M450.712 332.215C448.589 330.05 446.084 328.295 443.322 327.04C443.119 326.056 442.72 325.122 442.149 324.294C441.578 323.466 440.847 322.76 439.998 322.219C436.109 319.764 430.893 320.965 426.809 322.219C424.652 322.89 425.572 326.316 427.764 325.61C430.345 324.609 433.117 324.193 435.879 324.391C437.213 324.546 438.432 325.218 439.273 326.263C439.061 326.263 438.867 326.263 438.655 326.263C437.526 326.312 436.423 326.617 435.431 327.156C434.438 327.695 433.582 328.452 432.926 329.371C432.283 330.244 431.98 331.32 432.074 332.4C432.168 333.479 432.654 334.487 433.439 335.235C436.71 338.025 441.377 335.235 442.809 331.879C442.965 331.512 443.095 331.134 443.198 330.749C445.031 331.831 446.719 333.143 448.219 334.652C449.881 336.33 452.392 333.769 450.712 332.215ZM436.834 332.85C435.808 332.956 435.278 332.444 435.808 331.491C436.182 330.958 436.684 330.526 437.268 330.236C437.851 329.946 438.498 329.807 439.15 329.831C439.373 329.813 439.598 329.813 439.821 329.831C439.678 330.567 439.317 331.244 438.784 331.773C438.252 332.302 437.572 332.659 436.834 332.798V332.85Z" fill="#FFD45B"/>
<path d="M161.667 397.592L161.544 397.451L161.261 397.045L160.677 396.215C160.306 395.667 159.952 395.085 159.634 394.449C159.316 393.813 159.015 393.248 158.733 392.683C158.733 392.683 158.432 392.082 158.733 392.524C158.733 392.383 158.609 392.206 158.538 392.065C158.467 391.923 158.308 391.429 158.202 391.111C158.141 390.887 158.036 390.678 157.893 390.494C157.751 390.311 157.573 390.157 157.371 390.043C157.169 389.928 156.947 389.854 156.716 389.825C156.486 389.796 156.252 389.813 156.028 389.875C155.803 389.936 155.594 390.041 155.41 390.183C155.227 390.326 155.073 390.503 154.958 390.705C154.843 390.906 154.769 391.129 154.74 391.359C154.711 391.59 154.728 391.823 154.79 392.047C155.796 394.969 157.304 397.694 159.245 400.1C159.577 400.429 160.025 400.614 160.492 400.614C160.959 400.614 161.407 400.429 161.738 400.1C161.905 399.936 162.038 399.741 162.129 399.526C162.22 399.311 162.268 399.08 162.269 398.846C162.216 398.372 162.004 397.93 161.667 397.592Z" fill="#FFD45B"/>
<path d="M434.944 368.665C434.72 368.604 434.486 368.587 434.256 368.615C434.025 368.644 433.802 368.718 433.6 368.833C433.398 368.948 433.221 369.101 433.078 369.285C432.936 369.468 432.831 369.677 432.77 369.901L432.663 370.149C432.575 370.343 432.487 370.519 432.416 370.696C432.345 370.873 432.045 371.455 431.833 371.826C431.429 372.596 430.986 373.344 430.507 374.069C430.277 374.422 430.029 374.776 429.782 375.111L429.463 375.535C429.382 375.625 429.305 375.719 429.234 375.817C428.668 376.489 428.084 377.142 427.466 377.76C427.281 377.918 427.13 378.113 427.024 378.332C426.918 378.551 426.858 378.79 426.849 379.033C426.84 379.276 426.881 379.519 426.969 379.746C427.058 379.972 427.193 380.178 427.365 380.35C427.538 380.522 427.744 380.657 427.971 380.746C428.198 380.834 428.44 380.875 428.684 380.866C428.927 380.857 429.166 380.797 429.386 380.691C429.605 380.585 429.8 380.435 429.958 380.25C432.659 377.515 434.792 374.274 436.235 370.714C436.321 370.272 436.236 369.815 435.996 369.434C435.756 369.053 435.38 368.778 434.944 368.665Z" fill="#FFD45B"/>
<path d="M477.408 274.855C477.291 274.655 477.136 274.479 476.95 274.338C476.765 274.197 476.554 274.094 476.329 274.035C476.104 273.976 475.87 273.962 475.639 273.994C475.409 274.025 475.187 274.102 474.986 274.22L462.168 282.361C461.967 282.478 461.791 282.633 461.65 282.818C461.509 283.003 461.406 283.214 461.347 283.439C461.288 283.663 461.274 283.898 461.306 284.128C461.337 284.358 461.414 284.58 461.532 284.78C461.649 284.981 461.804 285.157 461.989 285.298C462.174 285.439 462.386 285.541 462.611 285.6C462.836 285.659 463.07 285.674 463.301 285.642C463.531 285.61 463.753 285.534 463.954 285.416L476.772 277.275C476.973 277.158 477.149 277.003 477.29 276.818C477.43 276.633 477.533 276.422 477.593 276.197C477.652 275.972 477.666 275.738 477.634 275.508C477.603 275.278 477.526 275.056 477.408 274.855Z" fill="#FFD45B"/>
<path d="M482.663 384.1C481.59 383.056 480.261 382.313 478.809 381.945C477.586 381.69 476.434 381.171 475.432 380.426C474.371 379.402 474.795 377.777 475.061 376.506C475.552 374.931 475.607 373.253 475.22 371.649C474.247 368.7 471.118 366.51 468.342 368.7C468.013 369.031 467.828 369.479 467.828 369.945C467.828 370.412 468.013 370.859 468.342 371.19C468.507 371.356 468.702 371.487 468.918 371.577C469.133 371.666 469.364 371.713 469.598 371.713C469.831 371.713 470.062 371.666 470.277 371.577C470.493 371.487 470.688 371.356 470.853 371.19C470.658 371.349 470.729 371.19 470.853 371.367C471.119 371.559 471.342 371.806 471.507 372.091C471.734 372.512 471.873 372.975 471.916 373.452C471.958 373.928 471.903 374.409 471.754 374.864C471.242 377.583 470.658 380.479 472.744 382.705C474.389 384.471 476.775 384.806 478.879 385.671C479.631 385.951 480.258 386.489 480.647 387.19C480.771 387.446 480.871 387.712 480.948 387.985C480.962 388.067 480.962 388.15 480.948 388.232H480.824C480.439 388.476 480.164 388.86 480.055 389.302C479.947 389.745 480.014 390.212 480.242 390.606C480.47 391.001 480.842 391.292 481.28 391.419C481.718 391.545 482.188 391.498 482.592 391.287C485.386 389.698 484.572 386.166 482.663 384.1Z" fill="#FFD45B"/>
<path d="M214.37 373.415L217.394 370.272C218.985 368.647 216.492 366.14 214.901 367.782L211.453 371.314C210.233 372.568 208.996 373.804 209.491 375.729C209.72 376.47 210.01 377.19 210.357 377.883C210.675 378.643 211.011 379.385 211.329 380.144C211.984 381.698 212.638 383.234 213.31 384.788C213.411 385.014 213.56 385.215 213.744 385.379C213.929 385.544 214.146 385.668 214.382 385.743C214.617 385.818 214.866 385.844 215.112 385.817C215.358 385.79 215.595 385.712 215.809 385.588C216.023 385.464 216.209 385.296 216.353 385.096C216.498 384.896 216.6 384.667 216.651 384.425C216.702 384.184 216.701 383.934 216.65 383.692C216.598 383.45 216.496 383.222 216.35 383.022C215.272 380.462 214.123 377.919 213.08 375.323C213.016 375.186 212.963 375.044 212.921 374.899C213.442 374.443 213.927 373.947 214.37 373.415Z" fill="#FFD45B"/>
<path d="M193.189 390.917C193.122 390.692 192.993 390.49 192.818 390.334L192.464 390.069C192.192 389.907 191.88 389.822 191.563 389.822H191.103C190.808 389.893 190.538 390.046 190.325 390.263L188.999 391.605C188.825 391.755 188.696 391.951 188.628 392.171C188.522 392.378 188.467 392.608 188.469 392.842C188.467 393.081 188.521 393.317 188.628 393.53C188.701 393.748 188.829 393.942 188.999 394.096L189.353 394.378C189.622 394.531 189.927 394.61 190.237 394.608H190.714C191.009 394.524 191.277 394.366 191.492 394.149L192.818 392.824C192.982 392.659 193.112 392.463 193.2 392.248C193.287 392.033 193.332 391.803 193.331 391.57C193.344 391.344 193.295 391.118 193.189 390.917Z" fill="#FFD45B"/>
<path d="M175.816 192.648C175.145 191.779 174.247 191.111 173.22 190.719C172.194 190.326 171.08 190.224 169.999 190.423C171.254 187.627 173.135 185.156 175.497 183.2C177.265 181.752 174.737 179.262 172.987 180.71C169.62 183.56 167.136 187.309 165.827 191.518C165.803 191.62 165.773 191.72 165.738 191.818C165.261 192.083 164.801 192.366 164.377 192.648C162.495 193.973 160.96 195.729 159.898 197.77C158.837 199.81 158.281 202.075 158.277 204.374C158.277 204.843 158.464 205.292 158.795 205.623C159.127 205.954 159.576 206.14 160.045 206.14C160.514 206.14 160.964 205.954 161.295 205.623C161.627 205.292 161.813 204.843 161.813 204.374C161.791 201.77 162.743 199.251 164.483 197.31L164.996 196.798C165.025 197.145 165.09 197.489 165.19 197.822C165.536 198.792 166.208 199.611 167.092 200.139C167.976 200.668 169.016 200.873 170.034 200.719C172.199 200.634 174.259 199.768 175.833 198.282C176.463 197.477 176.804 196.483 176.801 195.462C176.797 194.44 176.45 193.449 175.816 192.648ZM173.199 195.756C172.898 196.604 170.759 197.01 169.981 197.116C168.691 197.293 168.337 196.78 168.461 195.544C168.461 195.12 168.532 194.697 168.673 194.273C169.593 193.91 170.593 193.794 171.572 193.937C172.315 194.061 173.553 194.785 173.199 195.756Z" fill="#FFD45B"/>
<path d="M137.356 185.019C137.253 184.06 136.926 183.138 136.4 182.328C135.875 181.519 135.167 180.843 134.333 180.357C132.848 179.403 130.797 178.909 129.719 177.531C129.252 176.945 128.945 176.249 128.827 175.509C128.71 174.77 128.785 174.012 129.047 173.31C129.171 172.858 129.111 172.376 128.879 171.968C128.646 171.561 128.262 171.262 127.809 171.138C127.357 171.014 126.874 171.075 126.466 171.307C126.058 171.538 125.759 171.923 125.635 172.374C125.072 174.173 125.162 176.111 125.89 177.849C126.617 179.587 127.936 181.013 129.613 181.876C130.408 182.299 131.257 182.653 132.035 183.094C132.39 183.281 132.727 183.499 133.043 183.748C133.146 183.839 133.24 183.939 133.325 184.048L133.432 184.207L133.591 184.507C133.631 184.605 133.666 184.705 133.697 184.807C133.736 184.934 133.766 185.064 133.785 185.196C133.785 185.196 133.785 185.461 133.785 185.496C133.791 185.525 133.791 185.555 133.785 185.584V185.743C133.364 185.889 133.013 186.188 132.803 186.581C132.593 186.974 132.54 187.432 132.654 187.862C132.715 188.086 132.82 188.296 132.962 188.479C133.105 188.662 133.282 188.816 133.484 188.931C133.686 189.046 133.909 189.119 134.14 189.148C134.37 189.177 134.604 189.16 134.828 189.099C135.632 188.779 136.312 188.211 136.767 187.476C137.222 186.741 137.429 185.88 137.356 185.019Z" fill="#FFD45B"/>
<path d="M402.091 237.01C401.048 236.109 398.838 235.244 399.086 233.478C399.333 231.712 401.473 230.211 402.852 229.293C404.743 228.057 402.975 224.984 401.084 226.255C398.22 228.145 394.613 231.359 395.78 235.226C396.404 236.818 397.551 238.151 399.033 239.006C399.369 239.235 400.571 239.995 400.553 240.489C400.553 240.701 400.041 240.931 399.828 241.054C397.141 242.432 394.012 243.244 394.047 246.953C394.309 248.811 394.908 250.607 395.815 252.251C396.204 253.204 396.734 254.953 395.568 255.5C393.499 256.436 395.285 259.474 397.336 258.538C400.483 257.107 400.023 253.028 398.838 250.414C398.273 249.178 396.752 246.882 398.007 245.717C399.097 244.965 400.288 244.371 401.543 243.951C404.637 242.555 404.637 239.2 402.091 237.01Z" fill="#FFD45B"/>
<path d="M433.248 264.736C431.072 264.563 428.914 265.244 427.233 266.636C425.552 268.028 424.482 270.02 424.249 272.188C424.249 272.718 424.249 273.266 424.161 273.796C424.134 274.162 423.998 274.513 423.772 274.802C423.433 275.167 422.998 275.431 422.517 275.562C420.964 275.94 419.347 275.977 417.778 275.667C417.554 275.606 417.32 275.589 417.09 275.618C416.859 275.647 416.636 275.72 416.435 275.835C416.233 275.95 416.055 276.104 415.913 276.287C415.77 276.47 415.665 276.68 415.604 276.904C415.479 277.353 415.537 277.834 415.765 278.241C415.994 278.648 416.374 278.948 416.824 279.076C420.36 279.676 425.522 279.782 427.219 275.826C427.571 274.681 427.755 273.492 427.767 272.294C427.872 271.506 428.19 270.761 428.687 270.14C429.213 269.451 429.911 268.913 430.713 268.581C431.514 268.25 432.389 268.135 433.248 268.25C433.717 268.25 434.167 268.064 434.498 267.733C434.83 267.402 435.016 266.953 435.016 266.484C435.016 266.016 434.83 265.567 434.498 265.236C434.167 264.904 433.717 264.718 433.248 264.718V264.736Z" fill="#FFD45B"/>
<path d="M413.48 340.78C413.419 340.556 413.314 340.346 413.172 340.163C413.029 339.979 412.852 339.826 412.65 339.711C412.448 339.596 412.225 339.522 411.994 339.494C411.764 339.465 411.53 339.482 411.306 339.543C408.36 340.268 405.729 341.929 403.81 344.276C403.494 344.619 403.312 345.064 403.297 345.53C403.303 345.998 403.486 346.445 403.81 346.784C403.974 346.949 404.169 347.081 404.385 347.17C404.6 347.26 404.831 347.306 405.065 347.306C405.298 347.306 405.529 347.26 405.745 347.17C405.96 347.081 406.156 346.949 406.32 346.784C406.726 346.264 407.175 345.779 407.664 345.336L408.017 345.018C408.084 344.981 408.143 344.933 408.194 344.877L408.336 344.771L408.512 344.647L408.954 344.347C409.522 344.011 410.113 343.715 410.722 343.464H410.899L411.359 343.287C411.678 343.183 412.003 343.094 412.331 343.022C412.555 342.952 412.763 342.838 412.943 342.687C413.122 342.536 413.27 342.35 413.377 342.142C413.484 341.933 413.548 341.705 413.566 341.471C413.584 341.237 413.555 341.002 413.48 340.78Z" fill="#FFD45B"/>
<path d="M154.242 223.306C153.125 222.037 151.568 221.239 149.885 221.071C148.202 220.904 146.518 221.381 145.173 222.405C144.101 221.371 142.832 220.562 141.441 220.028C140.049 219.494 138.565 219.246 137.075 219.297C135.212 219.403 133.397 219.935 131.771 220.851C130.165 219.687 128.2 219.124 126.22 219.262C121.217 219.721 118.211 224.56 117.822 229.134C117.628 231.412 121.164 231.394 121.358 229.134C121.4 227.761 121.854 226.433 122.661 225.321C123.468 224.21 124.591 223.366 125.884 222.9C126.976 222.635 128.127 222.78 129.12 223.306C128.638 224.095 128.415 225.015 128.483 225.937C128.551 226.812 128.959 227.625 129.62 228.203C130.281 228.78 131.142 229.076 132.019 229.028C134.211 228.922 134.989 226.873 134.583 224.966C134.48 224.483 134.319 224.015 134.105 223.571C135.083 223.083 136.159 222.824 137.252 222.811C138.466 222.765 139.672 223.016 140.766 223.542C141.86 224.069 142.808 224.855 143.528 225.831C143.685 226.095 143.908 226.313 144.174 226.465C144.441 226.616 144.742 226.696 145.049 226.696C145.356 226.696 145.657 226.616 145.924 226.465C146.19 226.313 146.413 226.095 146.569 225.831C146.871 225.436 147.261 225.115 147.707 224.895C148.153 224.674 148.644 224.559 149.142 224.559C149.64 224.559 150.131 224.674 150.577 224.895C151.023 225.115 151.412 225.436 151.714 225.831C153.164 227.597 155.657 225.072 154.242 223.306Z" fill="#FFD45B"/>
<path d="M121.426 303.012L120.547 319.19L116.849 320.181L110.877 310.985L110.198 321.962L106.521 322.947L97.6461 309.381L101.216 308.425L107.376 317.98L108.08 306.586L111.268 305.733L117.493 315.362L118.132 303.894L121.426 303.012ZM138.113 311.525L138.853 314.287L127.335 317.372L123.348 302.497L134.59 299.486L135.33 302.249L127.51 304.343L128.376 307.573L135.282 305.724L136 308.401L129.093 310.251L130.016 313.693L138.113 311.525ZM150.442 302.893C151.364 302.935 152.152 303.21 152.804 303.718C153.453 304.212 153.901 304.92 154.148 305.841C154.497 307.144 154.257 308.287 153.426 309.268C152.607 310.232 151.226 310.973 149.285 311.493L141.593 313.554L137.605 298.679L144.873 296.732C146.686 296.247 148.168 296.222 149.317 296.658C150.481 297.09 151.222 297.901 151.541 299.091C151.735 299.814 151.731 300.506 151.528 301.167C151.34 301.825 150.978 302.4 150.442 302.893ZM141.721 300.355L142.661 303.861L146.083 302.945C146.933 302.717 147.538 302.396 147.897 301.981C148.256 301.565 148.358 301.067 148.203 300.487C148.047 299.906 147.711 299.533 147.196 299.367C146.677 299.187 145.993 299.211 145.143 299.439L141.721 300.355ZM148.335 308.969C149.242 308.726 149.882 308.395 150.256 307.976C150.644 307.554 150.754 307.031 150.587 306.407C150.257 305.175 149.178 304.803 147.35 305.293L143.333 306.369L144.319 310.045L148.335 308.969ZM155.224 302.068L161.238 300.457L161.95 303.113L155.936 304.724L155.224 302.068ZM175.695 288.477L179.683 303.352L176.856 304.109L167.019 297.064L169.44 306.095L166.039 307.006L162.052 292.131L164.9 291.368L174.716 298.419L172.295 289.388L175.695 288.477ZM193.434 283.726L190.982 300.325L187.582 301.236L177.177 288.08L180.895 287.084L188.27 296.497L190.012 284.642L193.434 283.726ZM199.231 298.298C198.65 298.454 198.108 298.387 197.605 298.096C197.102 297.806 196.77 297.363 196.611 296.768C196.448 296.159 196.515 295.617 196.813 295.142C197.107 294.654 197.545 294.332 198.125 294.176C198.706 294.02 199.246 294.081 199.746 294.357C200.241 294.619 200.57 295.055 200.734 295.664C200.893 296.259 200.828 296.808 200.537 297.311C200.247 297.814 199.811 298.143 199.231 298.298ZM213.205 294.374L209.225 290.998L209.055 291.044L206.059 291.846L207.169 295.99L203.727 296.912L199.739 282.037L206.178 280.313C207.496 279.96 208.695 279.874 209.776 280.055C210.872 280.232 211.79 280.655 212.53 281.322C213.271 281.989 213.789 282.875 214.086 283.98C214.382 285.085 214.369 286.113 214.047 287.065C213.735 287.998 213.148 288.809 212.284 289.496L216.902 293.383L213.205 294.374ZM210.6 284.913C210.376 284.077 209.936 283.512 209.28 283.217C208.62 282.908 207.773 282.892 206.739 283.169L203.934 283.92L205.324 289.105L208.129 288.354C209.163 288.077 209.889 287.639 210.306 287.042C210.722 286.444 210.821 285.735 210.6 284.913ZM226.031 291.211C223.906 291.781 222.091 291.637 220.586 290.78C219.094 289.919 218.057 288.397 217.472 286.216L215.239 277.886L218.681 276.964L220.88 285.166C221.594 287.83 223.056 288.865 225.266 288.273C226.343 287.985 227.079 287.446 227.475 286.657C227.867 285.853 227.879 284.765 227.511 283.39L225.312 275.188L228.712 274.277L230.945 282.607C231.53 284.789 231.385 286.627 230.51 288.122C229.649 289.612 228.156 290.642 226.031 291.211Z" fill="#4F54B1"/>
</svg>
