<?xml version="1.0" encoding="utf-8"?><svg xmlns="http://www.w3.org/2000/svg" xmlns:xlink="http://www.w3.org/1999/xlink"><symbol viewBox="0 0 15 9" id="arrow-up" xmlns="http://www.w3.org/2000/svg"><path d="M13.087 8.684L7.738 3.335 2.39 8.685.74 7.033l7-7 7 7-1.652 1.65z"/></symbol><symbol viewBox="0 0 40 40" id="mail" xmlns="http://www.w3.org/2000/svg"><path d="M36.484 4.77A3.521 3.521 0 0140 8.286v23.437a3.521 3.521 0 01-3.516 3.516H3.516A3.521 3.521 0 010 31.723V8.286A3.522 3.522 0 013.516 4.77zM4.012 7.114l16.063 15.924L35.998 7.114zm9.62 12.836L2.343 8.76v22.478zm22.367 12.945L24.766 21.662l-3.86 3.859a1.172 1.172 0 01-1.653.003l-3.957-3.923L4 32.895zm1.657-24.124L26.423 20.004l11.233 11.234z"/></symbol><symbol viewBox="0 0 40 40" id="phone" xmlns="http://www.w3.org/2000/svg"><path d="M36.248 29.427c.853.844 1.3 1.848 1.3 2.895 0 1.039-.439 2.052-1.274 2.921-.363.38-.735.743-1.098 1.09-.532.514-1.038.996-1.477 1.527-.009.017-.026.026-.034.043-1.283 1.393-2.921 2.093-4.871 2.093-.17 0-.355-.008-.532-.017-2.896-.185-5.488-1.274-7.43-2.195-5.082-2.456-9.53-5.943-13.228-10.358-3.048-3.664-5.091-7.083-6.459-10.773-.557-1.502-1.283-3.799-1.08-6.264a6.176 6.176 0 011.832-3.925l2.87-2.896.017-.017c.844-.81 1.84-1.241 2.87-1.241s2.01.43 2.828 1.241c.55.507 1.081 1.047 1.588 1.57.253.27.523.54.785.802l2.304 2.305c1.773 1.773 1.773 4.07 0 5.842-.236.236-.472.481-.709.718-.624.633-1.266 1.291-1.958 1.924.515 1.14 1.224 2.263 2.28 3.597 2.177 2.676 4.448 4.744 6.947 6.332.245.152.532.295.836.447.211.11.43.22.65.338l2.668-2.66c.852-.852 1.849-1.3 2.887-1.3 1.047 0 2.035.456 2.853 1.309zm-1.612 4.238c.861-.895.861-1.782-.009-2.643l-4.651-4.651-.017-.017c-.262-.287-.692-.617-1.216-.617-.532 0-.988.346-1.275.634l-2.887 2.887c-.143.143-.582.582-1.283.582a1.83 1.83 0 01-.836-.21c-.034-.018-.067-.043-.101-.06-.245-.152-.532-.295-.836-.447-.338-.17-.692-.346-1.038-.566-2.71-1.714-5.167-3.951-7.497-6.821l-.009-.009c-1.283-1.63-2.127-2.997-2.726-4.449l-.026-.076c-.152-.481-.287-1.19.44-1.916.008-.017.025-.026.041-.042a44.05 44.05 0 002.12-2.06c.244-.237.48-.482.726-.726.894-.895.894-1.723 0-2.617L11.25 7.536c-.27-.279-.54-.549-.802-.82A42.594 42.594 0 008.904 5.18c-.27-.27-.7-.59-1.233-.59-.43 0-.87.21-1.283.599L3.509 8.068c-.7.7-1.08 1.52-1.165 2.507-.126 1.545.16 3.183.946 5.285 1.274 3.444 3.2 6.652 6.078 10.122 3.487 4.162 7.683 7.446 12.46 9.76 1.749.835 4.079 1.815 6.586 1.975.127.008.262.008.388.008 1.317 0 2.322-.43 3.175-1.342a22.197 22.197 0 011.629-1.688c.363-.355.7-.676 1.03-1.03-.009.008-.009 0 0 0zM21.618 9.51a10.705 10.705 0 015.825 3.023 10.761 10.761 0 013.023 5.825c.092.558.574.946 1.122.946.068 0 .127-.008.195-.017a1.14 1.14 0 00.937-1.317 13.021 13.021 0 00-3.656-7.05 13.021 13.021 0 00-7.05-3.655 1.146 1.146 0 00-1.316.929c-.11.616.295 1.216.92 1.317zm18.333 8.135c-.751-4.407-2.828-8.417-6.02-11.608-3.19-3.191-7.2-5.268-11.607-6.02a1.135 1.135 0 00-1.309.929 1.145 1.145 0 00.937 1.317c3.934.667 7.522 2.533 10.376 5.378 2.853 2.853 4.71 6.441 5.378 10.375.093.558.574.946 1.122.946.068 0 .127-.009.195-.017a1.119 1.119 0 00.928-1.3z"/></symbol><symbol viewBox="0 0 40 40" id="price-ico-1" xmlns="http://www.w3.org/2000/svg"><path d="M4.969 30.323L.13 27.097l4.839-3.226h.195V0h22.848l6.83 6.83v17.04h1.935a3.23 3.23 0 013.226 3.226 3.23 3.23 0 01-3.226 3.226zm31.163-1.29h.645a1.938 1.938 0 001.936-1.936 1.938 1.938 0 00-1.936-1.936h-.645zm-1.29-3.872h-1.29v3.871h1.29zM28.39 6.451h4.249L28.39 2.204zM6.455 23.872h9.677v-3.18l-.664-4.65 2.174-5.073h4.721l2.175 5.073-.664 4.65v3.18h9.677V7.741H27.1v-6.45H6.455zM22.669 20l.541-3.783-1.697-3.959h-.865v2.7a1.93 1.93 0 011.29 1.816 1.938 1.938 0 01-1.935 1.936 1.938 1.938 0 01-1.936-1.936c0-.84.542-1.55 1.29-1.817v-2.699h-.864l-1.697 3.959.54 3.783zm-5.247 1.29v2.581h5.161v-2.58zm1.936-4.516a.645.645 0 101.29 0 .645.645 0 00-1.29 0zM6.455 26.452H32.26v-1.29H6.455zm0 2.58H32.26v-1.29H6.455zm-3.999-1.935l2.708 1.805v-3.61zM0 31.61h40v8.387H0zm1.29 7.097h2.581V35.48h1.29v3.226h2.58V36.77h1.291v1.936h2.58V35.48h1.291v3.226h2.58V36.77h1.291v1.936h2.58V35.48h1.291v3.226h2.58V36.77h1.291v1.936h2.58V35.48h1.291v3.226h2.58V36.77h1.291v1.936h2.58V35.48h1.291v3.226h2.58V32.9H1.29z"/><path d="M12.287 16.254a1.933 1.933 0 011.264 1.809 1.938 1.938 0 01-1.936 1.935 1.938 1.938 0 01-1.935-1.935c0-.85.554-1.566 1.317-1.826.28-4.73 4.206-8.497 9.006-8.497s8.725 3.766 9.005 8.497c.763.26 1.317.976 1.317 1.826a1.938 1.938 0 01-1.935 1.935 1.938 1.938 0 01-1.936-1.935c0-.83.529-1.535 1.264-1.809-.268-4.028-3.621-7.224-7.715-7.224-4.095 0-7.448 3.197-7.716 7.224zm15.457 1.809a.645.645 0 101.291 0 .645.645 0 00-1.29 0zm-15.483 0a.645.645 0 10-1.291 0 .645.645 0 001.29 0z"/></symbol><symbol viewBox="0 0 40 40" id="price-ico-2" xmlns="http://www.w3.org/2000/svg"><path d="M39.285 5c.395 0 .715.32.715.714v28.572c0 .394-.32.714-.714.714H.714A.714.714 0 010 34.286V5.713C0 5.32.32 5 .714 5zM5 11.428H1.429v22.143H5zm17.857 0H6.43v22.143h16.428zm5 0h-3.571v22.143h3.571zm10.714 0h-9.285v22.143h9.285zm0-5H1.43V10h37.14z"/><path d="M8.574 21.431a.714.714 0 01-.714-.714v-7.143c0-.394.32-.714.714-.714h12.143c.395 0 .715.32.715.714v7.143c0 .395-.32.714-.715.714H8.574zm.715-1.428h10.714v-5.715H9.289zm-.715 12.859a.714.714 0 01-.714-.715v-7.143c0-.394.32-.714.714-.714h12.143c.395 0 .715.32.715.714v7.143c0 .395-.32.715-.715.715H8.574zm.715-1.43h10.714V25.72H9.289zm11.424-9.292H8.57v1.429h12.143z"/></symbol><symbol viewBox="0 0 40 40" id="price-ico-3" xmlns="http://www.w3.org/2000/svg"><path d="M40 29.17v3.586l-2.054 3.08H2.054L0 32.757V29.17h1.667v-25h36.666v25zm-36.667 0h33.334V5.837H3.333zm35 1.667H1.667v1.414l1.279 1.919h34.108l1.28-1.919z"/><path d="M20.837 31.67H19.17v1.667h1.667zm-3.34 0H15.83v1.667h1.667zm6.67 0H22.5v1.667h1.667zM8.33 15.003V9.17H6.663v.833H5.83v1.667h.833v3.333H5.83v1.667h3.333v-1.667zm12.5 0V9.17h-1.667v.833h-.833v1.667h.833v3.333h-.833v1.667h3.333v-1.667zm5.84 0V9.17h-1.667v.833h-.833v1.667h.833v3.333h-.833v1.667h3.333v-1.667zM15.83 11.67v2.5c0 1.379-1.121 2.5-2.5 2.5a2.503 2.503 0 01-2.5-2.5v-2.5c0-1.379 1.121-2.5 2.5-2.5s2.5 1.121 2.5 2.5zm-1.667 0a.834.834 0 00-1.666 0v2.5a.834.834 0 001.666 0zm20.007 0v2.5c0 1.379-1.121 2.5-2.5 2.5a2.503 2.503 0 01-2.5-2.5v-2.5c0-1.379 1.121-2.5 2.5-2.5s2.5 1.121 2.5 2.5zm-1.667 0a.834.834 0 00-1.666 0v2.5a.834.834 0 001.666 0zm-24.166 7.5H6.67v5.833h1.667zm0 6.66H6.67v1.667h1.667zm8.33-4.16H15v5.833h1.667zm0-2.5H15v1.667h1.667zm12.5 0H27.5v5.833h1.667zm0 6.66H27.5v1.667h1.667zm4.17-4.16H31.67v5.833h1.667zm0-2.5H31.67v1.667h1.667zm-20.84 6.66H10.83v1.667h1.667zm0-6.66H10.83v3.333h1.667zm0 4.16H10.83v1.667h1.667zm12.5 2.5H23.33v1.667h1.667zm0-6.66H23.33v3.333h1.667zm0 4.16H23.33v1.667h1.667zm-4.16-4.16H19.17v1.667h1.667zm0 5H19.17v3.333h1.667zm0-2.5H19.17v1.667h1.667z"/></symbol><symbol viewBox="0 0 40 40" id="price-ico-4" xmlns="http://www.w3.org/2000/svg"><path d="M33.333 15.837v-5.834H1.667V34.17c0 1.378 1.121 2.5 2.5 2.5h26.666c1.378 0 2.5-1.122 2.5-2.5v-5a.834.834 0 011.667 0v5a4.171 4.171 0 01-4.167 4.167H4.167A4.171 4.171 0 010 34.17V5.837A4.171 4.171 0 014.167 1.67h26.666A4.171 4.171 0 0135 5.837v10a.834.834 0 01-1.667 0zm0-7.5v-2.5c0-1.379-1.121-2.5-2.5-2.5H4.167a2.503 2.503 0 00-2.5 2.5v2.5z"/><path d="M4.163 6.667a.833.833 0 100-1.667.833.833 0 000 1.667zm3.34 0a.833.833 0 100-1.667.833.833 0 000 1.667zm3.33 0a.833.833 0 100-1.667.833.833 0 000 1.667zM9.163 18.33a.834.834 0 00-.833.833v2.5H4.997v-2.5a.834.834 0 00-1.667 0v6.667a.834.834 0 001.667 0v-2.5H8.33v2.5a.834.834 0 001.667 0v-6.667a.834.834 0 00-.834-.833zm6.674 0h-3.334a.834.834 0 000 1.667h.834v5.833a.834.834 0 001.666 0v-5.833h.834a.834.834 0 000-1.667zm6.66 0h-3.334a.834.834 0 000 1.667h.834v5.833a.834.834 0 001.666 0v-5.833h.834a.834.834 0 000-1.667zm5.003 0c1.378 0 2.5 1.122 2.5 2.5s-1.122 2.5-2.5 2.5h-.833v2.5a.834.834 0 01-1.667 0v-6.667c0-.46.373-.833.833-.833zm0 3.333a.835.835 0 00.833-.833.835.835 0 00-.833-.833h-.833v1.666zm11.872-3.306a.824.824 0 00-1.01.606l-1.667 6.667a.831.831 0 00.808 1.035.83.83 0 00.809-.632l1.666-6.666a.831.831 0 00-.606-1.01zm-3.34 0a.823.823 0 00-1.01.606l-1.667 6.667a.831.831 0 00.808 1.035.83.83 0 00.809-.632l1.666-6.666a.831.831 0 00-.606-1.01zm-3.529 3.31a.833.833 0 100-1.667.833.833 0 000 1.667zm0 3.33a.833.833 0 100-1.667.833.833 0 000 1.667z"/></symbol><symbol viewBox="0 0 40 40" id="price-ico-5" xmlns="http://www.w3.org/2000/svg"><path d="M37.333 10.667v4h2c.4 0 .667.266.667.666v9.334c0 .4-.267.666-.667.666h-2v4h2c.4 0 .667.267.667.667v9.333c0 .4-.267.667-.667.667H.667c-.4 0-.667-.267-.667-.667V30c0-.4.267-.667.667-.667h2v-4h-2c-.4 0-.667-.266-.667-.666v-9.334c0-.4.267-.666.667-.666h2v-4h-2C.267 10.667 0 10.4 0 10V.667C0 .267.267 0 .667 0h38.666c.4 0 .667.267.667.667V10c0 .4-.267.667-.667.667zm-36-1.334h37.334v-8H1.333zm37.334 21.334H1.333v8h37.334zM36 25.333H4v4h32zM38.667 16H1.333v8h37.334zM36 10.667H4v4h32z"/><path d="M4.663 3.33H3.33v4h1.333zm3.34 0H6.67v4h1.333zm3.33 0H10v4h1.333zm3.33 0H13.33v4h1.333zm3.34 0H16.67v4h1.333zm3.33 0H20v4h1.333zm15.337 0h-12v1.333h12zM36.663 6H29.33v1.333h7.333zm-8.66 0H24.67v1.333h3.333zm8.66 12H27.33v1.333h9.333zM13.33 18h-10v1.333h10zm23.333 2.67H27.33v1.333h9.333zm-23.333 0h-10v1.333h10zm4.667 12H3.33v1.333h14.667zm0 2.66H3.33v1.333h14.667zM17.33 18h-2v1.333h2zm4 0h-2v1.333h2zm4 0h-2v1.333h2zm-8 2.67h-2v1.333h2zm4 0h-2v1.333h2zm4 0h-2v1.333h2zm-3.33 12h-2v1.333h2zm4 0h-2v1.333h2zm4 0h-2v1.333h2zm-8 2.66h-2v1.333h2zm4 0h-2v1.333h2zm4 0h-2v1.333h2zm3.333-2.66H32v4h1.333zm3.33 0H35.33v4h1.333z"/></symbol><symbol viewBox="0 0 40 40" id="price-ico-6" xmlns="http://www.w3.org/2000/svg"><path d="M9.825 20.7C4.407 20.7 0 16.291 0 10.874 0 5.457 4.407 1.05 9.825 1.05c5.417 0 9.824 4.407 9.824 9.825 0 5.417-4.407 9.824-9.824 9.824zm8.42-9.825h-2.361c.001.09.008.177.008.268 0 2.837-.752 5.34-1.96 7.076 2.57-1.444 4.314-4.193 4.314-7.344zM18.12 9.47a8.437 8.437 0 00-4.908-6.3c1.35 1.407 2.3 3.652 2.586 6.3zm-7.593 0h3.858c-.406-3.254-1.964-5.848-3.858-6.374zm0 9.717c2.21-.613 3.963-4.043 3.963-8.045 0-.09-.006-.179-.008-.268h-3.955zM1.53 9.471h2.321c.286-2.648 1.236-4.893 2.587-6.3a8.438 8.438 0 00-4.908 6.3zm-.126 1.404c0 3.151 1.742 5.9 4.312 7.343-1.208-1.735-1.96-4.238-1.96-7.075 0-.09.007-.178.009-.268zm7.719 0H5.168c-.002.09-.008.178-.008.268 0 4.002 1.754 7.432 3.963 8.046zm0-7.778c-1.894.526-3.452 3.12-3.859 6.374h3.859zM39.95 37.981a.702.702 0 01-.653.962H21.052a.703.703 0 01-.652-.962l1.354-3.384v-8.285a.7.7 0 01.701-.702h15.439c.388 0 .702.314.702.702v8.285l1.353 3.384zm-16.793-3.95h14.035v-7.017H23.157zm15.104 3.509l-.842-2.105H22.93l-.842 2.105zm-20.219-7.388a.702.702 0 10-.992.992l.786.787h-7.308v-5.905l.787.787a.7.7 0 00.992 0 .702.702 0 000-.992l-1.822-1.822a.693.693 0 00-.659-.489.693.693 0 00-.658.489L7.346 25.82a.702.702 0 10.992.992l.787-.787v6.607c0 .388.314.702.701.702h8.01l-.786.786a.702.702 0 10.992.992l1.984-1.984a.702.702 0 000-.992z"/></symbol><symbol viewBox="0 0 20 20" id="stages-ico-1" xmlns="http://www.w3.org/2000/svg"><path d="M10.659 19.343c-1.1-.07-2.083-.481-2.812-.828a14.992 14.992 0 01-4.989-3.904C1.713 13.229.938 11.937.425 10.548.213 9.973-.065 9.1.013 8.163c.05-.587.29-1.096.705-1.516l1.084-1.084c.339-.326.73-.493 1.133-.493.408 0 .795.171 1.117.493.196.184.4.387.591.587l.294.298.864.864c.342.342.521.737.521 1.145 0 .407-.179.803-.521 1.145l-.27.269c-.224.228-.456.46-.7.689.183.395.444.807.827 1.288.807.994 1.655 1.769 2.588 2.36.09.057.196.11.306.167.065.032.134.065.2.101l.961-.961c.33-.335.726-.51 1.133-.51.412 0 .803.175 1.125.514l1.74 1.74c.673.672.677 1.59.008 2.286a9.861 9.861 0 01-.411.412c-.2.192-.387.37-.55.566l-.017.017c-.493.538-1.125.81-1.879.81-.065 0-.134-.003-.203-.007zM3.62 13.967a14.027 14.027 0 004.65 3.648c.648.31 1.517.672 2.446.733.049.004.094.004.142.004.473 0 .832-.15 1.138-.476.195-.233.411-.437.615-.636.134-.13.265-.253.383-.38.302-.313.302-.602.012-.892l-1.748-1.748c-.098-.102-.24-.216-.412-.216-.175 0-.33.118-.428.216l-1.084 1.084c-.253.257-.562.31-.876.155l-.045-.025c-.09-.057-.196-.11-.306-.167-.13-.065-.264-.13-.395-.216-1.023-.648-1.948-1.492-2.828-2.576-.494-.62-.811-1.14-1.04-1.691l-.012-.033c-.065-.195-.118-.493.18-.79l.02-.02c.273-.245.526-.502.79-.77.09-.095.18-.184.274-.278.101-.106.228-.265.228-.44 0-.176-.122-.334-.228-.44l-.864-.864c-.102-.102-.204-.204-.302-.306-.196-.2-.38-.387-.57-.567-.103-.102-.25-.212-.425-.212-.183 0-.338.115-.436.208L1.432 7.34c-.261.26-.4.554-.428.905-.05.57.06 1.174.35 1.952.477 1.284 1.194 2.482 2.266 3.77z"/><path d="M12.041 11.49a7.014 7.014 0 001.68.205c3.464 0 6.28-2.499 6.28-5.568 0-3.069-2.816-5.567-6.28-5.567-3.465 0-6.281 2.494-6.281 5.567 0 1.178.424 2.327 1.198 3.273-.147.281-.35.51-.603.672a.657.657 0 00.269 1.203c.534.073 1.57.114 2.535-.469a.498.498 0 10-.513-.856 2.64 2.64 0 01-1.08.35 2.97 2.97 0 00.448-.814.505.505 0 00-.102-.514c-.754-.82-1.153-1.801-1.153-2.849 0-2.519 2.367-4.569 5.281-4.569 2.915 0 5.282 2.05 5.282 4.57 0 2.518-2.367 4.568-5.282 4.568a6.1 6.1 0 01-1.442-.171.5.5 0 00-.237.97z"/><path d="M13.72 6.66a.53.53 0 100-1.06.53.53 0 000 1.06zm1.89 0a.53.53 0 100-1.06.53.53 0 000 1.06zm-3.78 0a.53.53 0 100-1.06.53.53 0 000 1.06z"/></symbol><symbol viewBox="0 0 20 20" id="stages-ico-2" xmlns="http://www.w3.org/2000/svg"><path d="M6.03 3.934A3.979 3.979 0 0110.004-.04a3.979 3.979 0 013.975 3.974 3.979 3.979 0 01-3.975 3.975A3.979 3.979 0 016.03 3.934zm1.17 0a2.808 2.808 0 002.804 2.805 2.808 2.808 0 002.805-2.805 2.808 2.808 0 00-2.805-2.804A2.808 2.808 0 007.2 3.934z"/><path d="M9.104 5.314a.583.583 0 00.827 0l1.946-1.945a.585.585 0 00-.828-.828L9.518 4.073l-.56-.56a.585.585 0 00-.827.828zM0 3.44a2.383 2.383 0 012.38-2.38 2.383 2.383 0 012.38 2.38 2.383 2.383 0 01-2.38 2.38A2.383 2.383 0 010 3.44zm1.17 0a1.211 1.211 0 002.42 0c0-.667-.543-1.21-1.21-1.21-.667 0-1.21.543-1.21 1.21zm5.257 8.926c.973 0 1.764.79 1.764 1.763v5.038a.585.585 0 01-.585.585H5.334a.585.585 0 01-.585-.585v-3.39H2.29a2.072 2.072 0 01-2.069-2.07v-4.81c0-1.189.967-2.156 2.156-2.156 1.188 0 2.156.967 2.156 2.156v3.47zm.594 1.763a.594.594 0 00-.594-.593h-2.48a.585.585 0 01-.585-.585V8.896a.987.987 0 00-1.972 0v4.812a.9.9 0 00.9.9h3.044c.324 0 .585.261.585.585v3.389h1.102zM15.24 3.44a2.383 2.383 0 012.38-2.38A2.383 2.383 0 0120 3.44a2.383 2.383 0 01-2.38 2.38 2.383 2.383 0 01-2.38-2.38zm1.17 0a1.211 1.211 0 002.42 0c0-.667-.543-1.21-1.21-1.21-.667 0-1.21.543-1.21 1.21zm3.37 5.456v4.812c0 1.141-.928 2.07-2.07 2.07h-2.459v3.389a.585.585 0 01-.585.585h-2.271a.585.585 0 01-.585-.585v-5.038c0-.972.79-1.763 1.763-1.763h1.896v-3.47c0-1.189.967-2.156 2.156-2.156 1.188 0 2.156.967 2.156 2.156zm-1.17 4.812V8.896a.987.987 0 00-1.971 0v4.055a.585.585 0 01-.585.585h-2.48a.594.594 0 00-.594.593v4.453h1.101v-3.39c0-.322.262-.584.585-.584h3.045a.9.9 0 00.9-.9z"/><path d="M13.408 10.18a.585.585 0 100-1.17H6.595a.585.585 0 100 1.17h2.822v9.05a.585.585 0 101.17 0v-9.05z"/></symbol><symbol viewBox="0 0 20 20" id="stages-ico-3" xmlns="http://www.w3.org/2000/svg"><path d="M16.676 11.432a4.608 4.608 0 012.191 3.921 4.612 4.612 0 01-4.435 4.603v.004H1.14v-20h11.39l4.146 4.17zM12.887 3.77h1.704l-1.704-1.714zm-1.754 14.965a4.613 4.613 0 01-1.48-3.382 4.61 4.61 0 011.57-3.464l.031-.027a4.598 4.598 0 014.198-.96V4.994h-3.79v-3.81H2.365v17.552zm4.147-1.455h-1.974v1.319a3.388 3.388 0 001.974-.021zm-.085-1.225l-.568-.816h-.668l-.567.816zm1.31 1.826a3.374 3.374 0 001.138-2.528 3.386 3.386 0 00-4.658-3.133 3.37 3.37 0 00-.932.57l-.022.02a3.385 3.385 0 00-.14 4.956c.06.06.125.118.19.173v-2.144l2.212-3.181 2.212 3.18z"/><path d="M9.418 10.21H4.03v1.224h5.388zm-.04-4.96H3.99v1.224h5.388zm4.408 2.49H3.99v1.224h9.796z"/></symbol><symbol viewBox="0 0 20 20" id="stages-ico-4" xmlns="http://www.w3.org/2000/svg"><path d="M10.003 18.838a2.258 2.258 0 01-1.741-.833l-.734-.833a1.033 1.033 0 00-.858-.359l-1.125.1a2.29 2.29 0 01-1.808-.658 2.317 2.317 0 01-.667-1.808l.092-1.159a1.058 1.058 0 00-.367-.833l-.833-.725a2.283 2.283 0 010-3.492l.833-.733a1.033 1.033 0 00.35-.883l-.1-1.125a2.325 2.325 0 01.658-1.809 2.283 2.283 0 011.809-.666l1.158.091a1.025 1.025 0 00.833-.366l.725-.834A2.283 2.283 0 019.97 1.08a2.258 2.258 0 011.742.833l.733.834a1.051 1.051 0 00.892.35l1.125-.1a2.292 2.292 0 012.5 2.5l-.117 1.125a1.06 1.06 0 00.367.833l.833.725a2.283 2.283 0 010 3.492l-.833.733a1.033 1.033 0 00-.35.883l.1 1.125a2.324 2.324 0 01-.659 1.809 2.283 2.283 0 01-1.808.666l-1.158-.091a1.058 1.058 0 00-.834.366l-.725.834a2.283 2.283 0 01-1.741.833zm-3.25-3.275a2.293 2.293 0 011.742.834l.733.833a1.034 1.034 0 00.792.367 1 1 0 00.833-.375l.725-.834a2.283 2.283 0 011.934-.833l1.125.083a1.007 1.007 0 00.833-.3 1.04 1.04 0 00.3-.833l-.092-1.117a2.275 2.275 0 01.834-1.933l.833-.733a1.032 1.032 0 00.367-.792 1 1 0 00-.375-.833l-.834-.725a2.292 2.292 0 01-.833-1.934l.083-1.125a1.033 1.033 0 00-1.125-1.116l-1.116.091a2.267 2.267 0 01-1.934-.833l-.733-.833a1.033 1.033 0 00-.842-.3 1 1 0 00-.833.375l-.725.833a2.317 2.317 0 01-1.933.833L5.387 4.28a1.008 1.008 0 00-.834.3 1.042 1.042 0 00-.3.833l.092 1.117a2.275 2.275 0 01-.833 1.933l-.834.734a1.033 1.033 0 00-.366.791 1 1 0 00.375.834l.833.725a2.291 2.291 0 01.833 1.933l-.083 1.125a1.034 1.034 0 001.125 1.117l1.117-.092z"/><path d="M10.005 13.08a3.125 3.125 0 110-6.25 3.125 3.125 0 010 6.25zm0-5a1.875 1.875 0 100 3.75 1.875 1.875 0 000-3.75z"/></symbol><symbol viewBox="0 0 20 20" id="stages-ico-5" xmlns="http://www.w3.org/2000/svg"><path d="M19.88 16.067a.624.624 0 11-1.008.736l-2.906-3.975c-.523-.715-1.346-1.15-2.2-1.163h-.09l-5.858.085a.319.319 0 00-.315.34c.01.166.147.298.313.302l3.667.081c.415.01.81.192 1.086.502s.412.724.374 1.137a1.507 1.507 0 01-1.493 1.36h-.024l-4.213-.066a2.287 2.287 0 01-1.411-.518L2.07 11.819a.504.504 0 00-.662.758l4.743 4.391c.366.34.843.535 1.343.552l7.043.235a.624.624 0 11-.041 1.247l-7.044-.235a3.327 3.327 0 01-2.149-.883L.562 13.493a1.739 1.739 0 01-.56-1.222 1.74 1.74 0 01.47-1.258 1.754 1.754 0 012.392-.158l3.73 3.07c.18.147.406.23.639.234l4.213.065h.004a.253.253 0 00.188-.42.25.25 0 00-.183-.083l-3.667-.082A1.58 1.58 0 016.3 12.443a6.15 6.15 0 01-2.227-2.065 6.118 6.118 0 01-.98-3.329A6.146 6.146 0 019.233.91a6.146 6.146 0 016.14 6.14 6.08 6.08 0 01-1.036 3.416 4.088 4.088 0 012.636 1.626l2.907 3.975zM8.817 10.488v-.239A1.835 1.835 0 017.4 8.466a.416.416 0 01.832 0c0 .403.24.75.584.909V7.417A1.835 1.835 0 017.4 5.633c0-.867.605-1.594 1.416-1.783v-.29a.416.416 0 01.832 0v.289c.81.189 1.416.916 1.416 1.783a.416.416 0 01-.832 0c0-.403-.24-.75-.584-.909v1.958c.81.189 1.416.916 1.416 1.784 0 .867-.606 1.594-1.416 1.783v.227l3.119-.045a4.842 4.842 0 001.356-3.381 4.897 4.897 0 00-4.891-4.892A4.897 4.897 0 004.34 7.05c0 .945.27 1.862.78 2.651.375.58.865 1.07 1.436 1.444a1.557 1.557 0 011.243-.642zm0-5.764a1.001 1.001 0 000 1.818zm.832 4.65a1.001 1.001 0 000-1.818z"/></symbol></svg>